<svg height="793.70667" viewBox="0 0 1122.52 793.70667" width="1122.52" xmlns="http://www.w3.org/2000/svg" xmlns:xlink="http://www.w3.org/1999/xlink"><clipPath id="a"><path clip-rule="evenodd" d="m0 5952.75h8418.89v-4296.62h-8418.89z"/></clipPath><clipPath id="b"><path clip-rule="evenodd" d="m5744.64 4596.54c375.22 0 679.5-304.27 679.5-679.49 0-375.21-304.28-679.5-679.5-679.5-375.21 0-679.5 304.29-679.5 679.5 0 375.22 304.29 679.49 679.5 679.49zm0-50.52c-347.33 0-628.99-281.65-628.99-628.97s281.66-628.98 628.99-628.98c347.32 0 628.99 281.66 628.99 628.98s-281.67 628.97-628.99 628.97"/></clipPath><g transform="matrix(.13333333 0 0 -.13333333 0 793.70667)"><g clip-path="url(#a)"><path d="m0 1656.13h8418.89v4296.62h-8418.89z" fill="#80d6f7"/><path d="m14611.7 5136.39c0-3978.16-3224.9-7203.1-7203.07-7203.1-3978.16 0-7203.107 3224.94-7203.107 7203.1 0 3978.17 3224.947 7203.11 7203.107 7203.11 3978.17 0 7203.07-3224.94 7203.07-7203.11" fill="#7fd6f7"/><path d="m14555.5 5136.39c0-3947.08-3199.8-7146.83-7146.87-7146.83-3947.08 0-7146.833 3199.75-7146.833 7146.83 0 3947.09 3199.753 7146.81 7146.833 7146.81 3947.07 0 7146.87-3199.72 7146.87-7146.81" fill="#81d6f7"/><path d="m14499.2 5136.39c0-3916-3174.6-7090.55-7090.57-7090.55-3916 0-7090.56 3174.55-7090.56 7090.55 0 3916.01 3174.56 7090.61 7090.56 7090.61 3915.97 0 7090.57-3174.6 7090.57-7090.61" fill="#82d7f6"/><path d="m14442.9 5136.39c0-3884.92-3149.3-7034.28-7034.27-7034.28-3884.92 0-7034.282 3149.36-7034.282 7034.28 0 3884.93 3149.362 7034.31 7034.282 7034.31 3884.97 0 7034.27-3149.38 7034.27-7034.31" fill="#83d7f6"/><path d="m14386.6 5136.39c0-3853.84-3124.1-6978.01-6977.97-6978.01-3853.84 0-6978.009 3124.17-6978.009 6978.01 0 3853.85 3124.169 6978.01 6978.009 6978.01 3853.87 0 6977.97-3124.16 6977.97-6978.01" fill="#84d7f6"/><path d="m14330.4 5136.39c0-3822.76-3099-6921.73-6921.77-6921.73s-6921.735 3098.97-6921.735 6921.73c0 3822.77 3098.965 6921.71 6921.735 6921.71s6921.77-3098.94 6921.77-6921.71" fill="#85d8f6"/><path d="m14274.1 5136.39c0-3791.68-3073.8-6865.46-6865.47-6865.46-3791.68 0-6865.462 3073.78-6865.462 6865.46 0 3791.69 3073.782 6865.51 6865.462 6865.51 3791.67 0 6865.47-3073.82 6865.47-6865.51" fill="#86d8f6"/><path d="m14217.8 5136.39c0-3760.6-3048.6-6809.18-6809.17-6809.18-3760.61 0-6809.189 3048.58-6809.189 6809.18 0 3760.61 3048.579 6809.21 6809.189 6809.21 3760.57 0 6809.17-3048.6 6809.17-6809.21" fill="#87d8f5"/><path d="m14161.6 5136.39c0-3729.53-3023.4-6752.91-6752.97-6752.91-3729.53 0-6752.911 3023.38-6752.911 6752.91 0 3729.54 3023.381 6752.91 6752.911 6752.91 3729.57 0 6752.97-3023.37 6752.97-6752.91" fill="#88d9f5"/><path d="m14105.3 5136.39c0-3698.44-2998.2-6696.64-6696.67-6696.64-3698.45 0-6696.638 2998.2-6696.638 6696.64 0 3698.45 2998.188 6696.61 6696.638 6696.61 3698.47 0 6696.67-2998.16 6696.67-6696.61" fill="#89d9f4"/><path d="m14049 5136.39c0-3667.37-2973-6640.36-6640.37-6640.36s-6640.364 2972.99-6640.364 6640.36c0 3667.38 2972.994 6640.41 6640.364 6640.41s6640.37-2973.03 6640.37-6640.41" fill="#8ad9f4"/><path d="m13992.7 5136.39c0-3636.29-2947.8-6584.09-6584.07-6584.09-3636.29 0-6584.091 2947.8-6584.091 6584.09 0 3636.3 2947.801 6584.11 6584.091 6584.11 3636.27 0 6584.07-2947.81 6584.07-6584.11" fill="#8bdaf4"/><path d="m13936.5 5136.39c0-3605.21-2922.7-6527.81-6527.87-6527.81-3605.21 0-6527.814 2922.6-6527.814 6527.81 0 3605.22 2922.604 6527.81 6527.814 6527.81 3605.17 0 6527.87-2922.59 6527.87-6527.81" fill="#8cdaf4"/><path d="m13880.2 5136.39c0-3574.13-2897.4-6471.54-6471.57-6471.54-3574.13 0-6471.54 2897.41-6471.54 6471.54 0 3574.14 2897.41 6471.51 6471.54 6471.51 3574.17 0 6471.57-2897.37 6471.57-6471.51" fill="#8ddaf4"/><path d="m13823.9 5136.39c0-3543.05-2872.2-6415.27-6415.27-6415.27-3543.05 0-6415.267 2872.22-6415.267 6415.27 0 3543.06 2872.217 6415.31 6415.267 6415.31 3543.07 0 6415.27-2872.25 6415.27-6415.31" fill="#8edaf3"/><path d="m13767.6 5136.39c0-3511.97-2847-6358.99-6358.97-6358.99s-6358.99 2847.02-6358.99 6358.99c0 3511.98 2847.02 6359.01 6358.99 6359.01s6358.97-2847.03 6358.97-6359.01" fill="#8fdbf3"/><path d="m13711.4 5136.39c0-3480.89-2821.9-6302.71-6302.77-6302.71-3480.89 0-6302.72 2821.82-6302.72 6302.71 0 3480.9 2821.83 6302.71 6302.72 6302.71 3480.87 0 6302.77-2821.81 6302.77-6302.71" fill="#90dbf3"/><path d="m13655.1 5136.39c0-3449.81-2796.7-6246.44-6246.47-6246.44-3449.81 0-6246.44 2796.63-6246.44 6246.44 0 3449.82 2796.63 6246.41 6246.44 6246.41 3449.77 0 6246.47-2796.59 6246.47-6246.41" fill="#91dbf2"/><path d="m13598.8 5136.39c0-3418.73-2771.4-6190.17-6190.17-6190.17-3418.73 0-6190.17 2771.44-6190.17 6190.17 0 3418.74 2771.44 6190.21 6190.17 6190.21 3418.77 0 6190.17-2771.47 6190.17-6190.21" fill="#92dcf2"/><path d="m13542.5 5136.39c0-3387.65-2746.2-6133.894-6133.87-6133.894-3387.65 0-6133.9 2746.244-6133.9 6133.894 0 3387.66 2746.25 6133.91 6133.9 6133.91 3387.67 0 6133.87-2746.25 6133.87-6133.91" fill="#93dcf2"/><path d="m13486.3 5136.39c0-3356.57-2721.1-6077.617-6077.67-6077.617-3356.58 0-6077.62 2721.047-6077.62 6077.617 0 3356.58 2721.04 6077.61 6077.62 6077.61 3356.57 0 6077.67-2721.03 6077.67-6077.61" fill="#94dcf2"/><path d="m13430 5136.39c0-3325.49-2695.9-6021.343-6021.37-6021.343-3325.49 0-6021.34 2695.853-6021.34 6021.343 0 3325.5 2695.85 6021.31 6021.34 6021.31 3325.47 0 6021.37-2695.81 6021.37-6021.31" fill="#95ddf2"/><path d="m13373.7 5136.39c0-3294.41-2670.6-5965.07-5965.07-5965.07-3294.42 0-5965.07 2670.66-5965.07 5965.07 0 3294.42 2670.65 5965.11 5965.07 5965.11 3294.47 0 5965.07-2670.69 5965.07-5965.11" fill="#96ddf1"/><path d="m13317.4 5136.39c0-3263.34-2645.4-5908.796-5908.77-5908.796-3263.34 0-5908.8 2645.456-5908.8 5908.796s2645.46 5908.81 5908.8 5908.81c3263.37 0 5908.77-2645.47 5908.77-5908.81" fill="#97ddf1"/><path d="m13261.2 5136.39c0-3232.25-2620.3-5852.519-5852.57-5852.519-3232.25 0-5852.52 2620.269-5852.52 5852.519 0 3232.26 2620.27 5852.51 5852.52 5852.51 3232.27 0 5852.57-2620.25 5852.57-5852.51" fill="#98ddf0"/><path d="m13204.9 5136.39c0-3201.18-2595.1-5796.245-5796.27-5796.245-3201.18 0-5796.25 2595.065-5796.25 5796.245s2595.07 5796.21 5796.25 5796.21c3201.17 0 5796.27-2595.03 5796.27-5796.21" fill="#99def0"/><path d="m13148.6 5136.39c0-3170.1-2569.9-5739.972-5739.97-5739.972-3170.1 0-5739.97 2569.872-5739.97 5739.972 0 3170.11 2569.87 5740.01 5739.97 5740.01 3170.07 0 5739.97-2569.9 5739.97-5740.01" fill="#9adef0"/><path d="m13092.3 5136.39c0-3139.01-2544.6-5683.699-5683.67-5683.699-3139.02 0-5683.7 2544.689-5683.7 5683.699 0 3139.02 2544.68 5683.71 5683.7 5683.71 3139.07 0 5683.67-2544.69 5683.67-5683.71" fill="#9bdeef"/><path d="m13036.1 5136.39c0-3107.94-2519.5-5627.425-5627.47-5627.425-3107.94 0-5627.43 2519.485-5627.43 5627.425 0 3107.95 2519.49 5627.41 5627.43 5627.41 3107.97 0 5627.47-2519.46 5627.47-5627.41" fill="#9cdfef"/><path d="m12979.8 5136.39c0-3076.86-2494.3-5571.148-5571.17-5571.148-3076.86 0-5571.15 2494.288-5571.15 5571.148 0 3076.87 2494.29 5571.21 5571.15 5571.21 3076.87 0 5571.17-2494.34 5571.17-5571.21" fill="#9ddfef"/><path d="m12923.5 5136.39c0-3045.78-2469.1-5514.874-5514.87-5514.874-3045.78 0-5514.88 2469.094-5514.88 5514.874 0 3045.79 2469.1 5514.91 5514.88 5514.91 3045.77 0 5514.87-2469.12 5514.87-5514.91" fill="#9edfef"/><path d="m12867.2 5136.39c0-3014.7-2443.9-5458.601-5458.57-5458.601-3014.7 0-5458.6 2443.901-5458.6 5458.601 0 3014.71 2443.9 5458.61 5458.6 5458.61 3014.67 0 5458.57-2443.9 5458.57-5458.61" fill="#9fe0ef"/><path d="m12811 5136.39c0-2983.62-2418.7-5402.328-5402.37-5402.328-2983.62 0-5402.33 2418.708-5402.33 5402.328 0 2983.63 2418.71 5402.31 5402.33 5402.31 2983.67 0 5402.37-2418.68 5402.37-5402.31" fill="#a0e0ee"/><path d="m12754.7 5136.39c0-2952.54-2393.5-5346.05-5346.07-5346.05-2952.54 0-5346.06 2393.51-5346.06 5346.05 0 2952.55 2393.52 5346.11 5346.06 5346.11 2952.57 0 5346.07-2393.56 5346.07-5346.11" fill="#a1e0ee"/><path d="m12698.4 5136.39c0-2921.46-2368.3-5289.777-5289.77-5289.777-2921.46 0-5289.78 2368.317-5289.78 5289.777 0 2921.47 2368.32 5289.81 5289.78 5289.81 2921.47 0 5289.77-2368.34 5289.77-5289.81" fill="#a2e0ed"/><path d="m12642.1 5136.39c0-2890.38-2343.1-5233.5033-5233.47-5233.5033-2890.38 0-5233.5 2343.1233-5233.5 5233.5033 0 2890.39 2343.12 5233.51 5233.5 5233.51 2890.37 0 5233.47-2343.12 5233.47-5233.51" fill="#a3e1ed"/><path d="m12585.9 5136.39c0-2859.3-2318-5177.2298-5177.27-5177.2298-2859.3 0-5177.23 2317.9298-5177.23 5177.2298 0 2859.31 2317.93 5177.21 5177.23 5177.21 2859.27 0 5177.27-2317.9 5177.27-5177.21" fill="#a4e1ed"/><path d="m12529.6 5136.39c0-2828.22-2292.7-5120.9564-5120.97-5120.9564-2828.22 0-5120.96 2292.7364-5120.96 5120.9564 0 2828.23 2292.74 5121.01 5120.96 5121.01 2828.27 0 5120.97-2292.78 5120.97-5121.01" fill="#a5e1ec"/><path d="m12473.3 5136.39c0-2797.14-2267.5-5064.6791-5064.67-5064.6791-2797.15 0-5064.68 2267.5391-5064.68 5064.6791 0 2797.15 2267.53 5064.71 5064.68 5064.71 2797.17 0 5064.67-2267.56 5064.67-5064.71" fill="#a6e2ec"/><path d="m12417 5136.39c0-2766.06-2242.3-5008.406-5008.37-5008.406-2766.06 0-5008.41 2242.346-5008.41 5008.406 0 2766.07 2242.35 5008.41 5008.41 5008.41 2766.07 0 5008.37-2242.34 5008.37-5008.41" fill="#a7e2ec"/><path d="m12360.8 5136.39c0-2734.98-2217.2-4952.132-4952.17-4952.132-2734.99 0-4952.13 2217.152-4952.13 4952.132 0 2734.99 2217.14 4952.11 4952.13 4952.11 2734.97 0 4952.17-2217.12 4952.17-4952.11" fill="#a8e2ec"/><path d="m12304.5 5136.39c0-2703.91-2192-4895.859-4895.87-4895.859-2703.91 0-4895.86 2191.949-4895.86 4895.859s2191.95 4895.91 4895.86 4895.91c2703.87 0 4895.87-2192 4895.87-4895.91" fill="#a9e3ec"/><path d="m12248.2 5136.39c0-2672.82-2166.7-4839.581-4839.57-4839.581-2672.83 0-4839.59 2166.761-4839.59 4839.581 0 2672.83 2166.76 4839.59 4839.59 4839.59 2672.87 0 4839.57-2166.76 4839.57-4839.59" fill="#aae3eb"/><path d="m12191.9 5136.39c0-2641.75-2141.5-4783.308-4783.27-4783.308-2641.75 0-4783.31 2141.558-4783.31 4783.308s2141.56 4783.32 4783.31 4783.32c2641.77 0 4783.27-2141.57 4783.27-4783.32" fill="#abe3eb"/><path d="m12135.7 5136.39c0-2610.67-2116.4-4727.035-4727.07-4727.035s-4727.04 2116.365-4727.04 4727.035c0 2610.68 2116.37 4727.05 4727.04 4727.05s4727.07-2116.37 4727.07-4727.05" fill="#ace4ea"/><path d="m12079.4 5136.39c0-2579.59-2091.18-4670.761-4670.77-4670.761s-4670.76 2091.171-4670.76 4670.761 2091.17 4670.77 4670.76 4670.77 4670.77-2091.18 4670.77-4670.77" fill="#ade4ea"/><path d="m12023.1 5136.39c0-2548.51-2065.96-4614.488-4614.47-4614.488s-4614.49 2065.978-4614.49 4614.488c0 2548.52 2065.98 4614.5 4614.49 4614.5s4614.47-2065.98 4614.47-4614.5" fill="#aee4ea"/><path d="m11966.9 5136.39c0-2517.43-2040.83-4558.21-4558.27-4558.21-2517.43 0-4558.22 2040.78-4558.22 4558.21 0 2517.44 2040.79 4558.22 4558.22 4558.22 2517.44 0 4558.27-2040.78 4558.27-4558.22" fill="#afe4e9"/><path d="m11910.6 5136.39c0-2486.35-2015.62-4501.937-4501.97-4501.937s-4501.94 2015.587-4501.94 4501.937c0 2486.36 2015.59 4501.95 4501.94 4501.95s4501.97-2015.59 4501.97-4501.95" fill="#b0e5e9"/><path d="m11854.3 5136.39c0-2455.27-1990.39-4445.663-4445.67-4445.663-2455.27 0-4445.67 1990.393-4445.67 4445.663 0 2455.28 1990.4 4445.68 4445.67 4445.68 2455.28 0 4445.67-1990.4 4445.67-4445.68" fill="#b1e5e8"/><path d="m11798 5136.39c0-2424.19-1965.17-4389.39-4389.37-4389.39-2424.19 0-4389.39 1965.2-4389.39 4389.39 0 2424.2 1965.2 4389.4 4389.39 4389.4 2424.2 0 4389.37-1965.2 4389.37-4389.4" fill="#b2e5e8"/><path d="m11741.8 5136.39c0-2393.11-1940.05-4333.113-4333.17-4333.113-2393.11 0-4333.12 1940.003-4333.12 4333.113 0 2393.12 1940.01 4333.13 4333.12 4333.13 2393.12 0 4333.17-1940.01 4333.17-4333.13" fill="#b3e6e8"/><path d="m11685.5 5136.39c0-2362.03-1914.83-4276.839-4276.87-4276.839-2362.03 0-4276.84 1914.809-4276.84 4276.839 0 2362.04 1914.81 4276.85 4276.84 4276.85 2362.04 0 4276.87-1914.81 4276.87-4276.85" fill="#b4e6e8"/><path d="m11629.2 5136.39c0-2330.95-1889.61-4220.566-4220.57-4220.566-2330.95 0-4220.57 1889.616-4220.57 4220.566 0 2330.96 1889.62 4220.58 4220.57 4220.58 2330.96 0 4220.57-1889.62 4220.57-4220.58" fill="#b5e6e8"/><path d="m11572.9 5136.39c0-2299.87-1864.39-4164.292-4164.27-4164.292-2299.87 0-4164.29 1864.422-4164.29 4164.292 0 2299.88 1864.42 4164.31 4164.29 4164.31 2299.88 0 4164.27-1864.43 4164.27-4164.31" fill="#b6e7e7"/><path d="m11516.7 5136.39c0-2268.79-1839.27-4108.02-4108.07-4108.02-2268.79 0-4108.02 1839.23-4108.02 4108.02 0 2268.8 1839.23 4108.03 4108.02 4108.03 2268.8 0 4108.07-1839.23 4108.07-4108.03" fill="#b7e7e7"/><path d="m11460.4 5136.39c0-2237.71-1814.05-4051.74-4051.77-4051.74s-4051.75 1814.03-4051.75 4051.74c0 2237.72 1814.03 4051.75 4051.75 4051.75s4051.77-1814.03 4051.77-4051.75" fill="#b8e7e7"/><path d="m11404.1 5136.39c0-2206.63-1788.83-3995.47-3995.47-3995.47-2206.63 0-3995.47 1788.84-3995.47 3995.47 0 2206.64 1788.84 3995.48 3995.47 3995.48 2206.64 0 3995.47-1788.84 3995.47-3995.48" fill="#b9e7e6"/><path d="m11347.8 5136.39c0-2175.55-1763.61-3939.19-3939.17-3939.19s-3939.2 1763.64-3939.2 3939.19c0 2175.56 1763.64 3939.21 3939.2 3939.21s3939.17-1763.65 3939.17-3939.21" fill="#bae8e6"/><path d="m11291.6 5136.39c0-2144.48-1738.49-3882.92-3882.97-3882.92s-3882.92 1738.44-3882.92 3882.92c0 2144.49 1738.44 3882.93 3882.92 3882.93s3882.97-1738.44 3882.97-3882.93" fill="#bbe8e5"/><path d="m11235.3 5136.39c0-2113.39-1713.27-3826.65-3826.67-3826.65s-3826.65 1713.26-3826.65 3826.65c0 2113.4 1713.25 3826.66 3826.65 3826.66s3826.67-1713.26 3826.67-3826.66" fill="#bce8e5"/><path d="m11179 5136.39c0-2082.32-1688.05-3770.37-3770.37-3770.37s-3770.38 1688.05-3770.38 3770.37 1688.06 3770.38 3770.38 3770.38 3770.37-1688.06 3770.37-3770.38" fill="#bde9e5"/><path d="m11122.7 5136.39c0-2051.24-1662.82-3714.1-3714.07-3714.1-2051.24 0-3714.1 1662.86-3714.1 3714.1 0 2051.25 1662.86 3714.11 3714.1 3714.11 2051.25 0 3714.07-1662.86 3714.07-3714.11" fill="#bee9e4"/><path d="m11066.5 5136.39c0-2020.16-1637.71-3657.82-3657.87-3657.82s-3657.83 1637.66-3657.83 3657.82 1637.67 3657.84 3657.83 3657.84 3657.87-1637.68 3657.87-3657.84" fill="#bfe9e4"/><path d="m11010.2 5136.39c0-1989.08-1612.49-3601.55-3601.57-3601.55s-3601.55 1612.47-3601.55 3601.55c0 1989.09 1612.47 3601.56 3601.55 3601.56s3601.57-1612.47 3601.57-3601.56" fill="#c0eae3"/><path d="m10953.9 5136.39c0-1958-1587.26-3545.27-3545.27-3545.27-1958 0-3545.28 1587.27-3545.28 3545.27 0 1958.01 1587.28 3545.29 3545.28 3545.29 1958.01 0 3545.27-1587.28 3545.27-3545.29" fill="#c1eae3"/><path d="m10897.6 5136.39c0-1926.92-1562.05-3489-3488.97-3489s-3489 1562.08-3489 3489c0 1926.93 1562.08 3489.01 3489 3489.01s3488.97-1562.08 3488.97-3489.01" fill="#c2eae3"/><path d="m10841.4 5136.39c0-1895.84-1536.92-3432.73-3432.77-3432.73-1895.84 0-3432.73 1536.89-3432.73 3432.73 0 1895.85 1536.89 3432.74 3432.73 3432.74 1895.85 0 3432.77-1536.89 3432.77-3432.74" fill="#c3eae3"/><path d="m10785.1 5136.39c0-1864.76-1511.7-3376.45-3376.47-3376.45-1864.76 0-3376.45 1511.69-3376.45 3376.45 0 1864.77 1511.69 3376.47 3376.45 3376.47 1864.77 0 3376.47-1511.7 3376.47-3376.47" fill="#c4ebe3"/><path d="m10728.8 5136.39c0-1833.68-1486.48-3320.18-3320.17-3320.18-1833.68 0-3320.18 1486.5-3320.18 3320.18 0 1833.69 1486.5 3320.19 3320.18 3320.19 1833.69 0 3320.17-1486.5 3320.17-3320.19" fill="#c5ebe2"/><path d="m10672.5 5136.39c0-1802.6-1461.26-3263.9-3263.87-3263.9-1802.6 0-3263.91 1461.3-3263.91 3263.9 0 1802.61 1461.31 3263.91 3263.91 3263.91 1802.61 0 3263.87-1461.3 3263.87-3263.91" fill="#c6ebe2"/><path d="m10616.3 5136.39c0-1771.52-1436.14-3207.63-3207.67-3207.63-1771.52 0-3207.63 1436.11-3207.63 3207.63 0 1771.53 1436.11 3207.64 3207.63 3207.64 1771.53 0 3207.67-1436.11 3207.67-3207.64" fill="#c7ece1"/><path d="m10560 5136.39c0-1740.44-1410.92-3151.35-3151.37-3151.35-1740.44 0-3151.36 1410.91-3151.36 3151.35 0 1740.45 1410.92 3151.37 3151.36 3151.37 1740.45 0 3151.37-1410.92 3151.37-3151.37" fill="#c8ece1"/><path d="m10503.7 5136.39c0-1709.36-1385.7-3095.08-3095.07-3095.08-1709.36 0-3095.08 1385.72-3095.08 3095.08 0 1709.37 1385.72 3095.09 3095.08 3095.09 1709.37 0 3095.07-1385.72 3095.07-3095.09" fill="#c9ece1"/><path d="m10447.4 5136.39c0-1678.28-1360.48-3038.8-3038.77-3038.8s-3038.81 1360.52-3038.81 3038.8c0 1678.29 1360.52 3038.82 3038.81 3038.82s3038.77-1360.53 3038.77-3038.82" fill="#caede0"/><path d="m10391.2 5136.39c0-1647.2-1335.36-2982.53-2982.57-2982.53-1647.2 0-2982.54 1335.33-2982.54 2982.53 0 1647.21 1335.34 2982.54 2982.54 2982.54 1647.21 0 2982.57-1335.33 2982.57-2982.54" fill="#cbede0"/><path d="m10334.9 5136.39c0-1616.12-1310.14-2926.26-2926.27-2926.26s-2926.26 1310.14-2926.26 2926.26c0 1616.13 1310.13 2926.27 2926.26 2926.27s2926.27-1310.14 2926.27-2926.27" fill="#cceddf"/><path d="m10278.6 5136.39c0-1585.05-1284.92-2869.98-2869.97-2869.98s-2869.99 1284.93-2869.99 2869.98c0 1585.06 1284.94 2870 2869.99 2870s2869.97-1284.94 2869.97-2870" fill="#cdeddf"/><path d="m10222.3 5136.39c0-1553.96-1259.7-2813.71-2813.67-2813.71s-2813.71 1259.75-2813.71 2813.71c0 1553.97 1259.74 2813.72 2813.71 2813.72s2813.67-1259.75 2813.67-2813.72" fill="#ceeedf"/><path d="m10166.1 5136.39c0-1522.89-1234.58-2757.43-2757.47-2757.43s-2757.44 1234.54-2757.44 2757.43c0 1522.9 1234.55 2757.45 2757.44 2757.45s2757.47-1234.55 2757.47-2757.45" fill="#cfeede"/><path d="m10109.8 5136.39c0-1491.81-1209.35-2701.16-2701.17-2701.16-1491.81 0-2701.16 1209.35-2701.16 2701.16 0 1491.82 1209.35 2701.17 2701.16 2701.17 1491.82 0 2701.17-1209.35 2701.17-2701.17" fill="#d0eede"/><path d="m10053.5 5136.39c0-1460.73-1184.14-2644.89-2644.87-2644.89s-2644.89 1184.16-2644.89 2644.89c0 1460.74 1184.16 2644.9 2644.89 2644.9s2644.87-1184.16 2644.87-2644.9" fill="#d1efdd"/><path d="m9997.25 5136.39c0-1429.65-1158.96-2588.61-2588.62-2588.61-1429.65 0-2588.61 1158.96-2588.61 2588.61 0 1429.66 1158.96 2588.63 2588.61 2588.63 1429.66 0 2588.62-1158.97 2588.62-2588.63" fill="#d2efdd"/><path d="m9940.98 5136.39c0-1398.57-1133.77-2532.34-2532.35-2532.34-1398.57 0-2532.34 1133.77-2532.34 2532.34 0 1398.58 1133.77 2532.35 2532.34 2532.35 1398.58 0 2532.35-1133.77 2532.35-2532.35" fill="#d3efdd"/><path d="m9884.7 5136.39c0-1367.49-1108.57-2476.06-2476.07-2476.06-1367.49 0-2476.07 1108.57-2476.07 2476.06 0 1367.5 1108.58 2476.07 2476.07 2476.07 1367.5 0 2476.07-1108.57 2476.07-2476.07" fill="#d4f0dc"/><path d="m9828.43 5136.39c0-1336.41-1083.38-2419.79-2419.8-2419.79-1336.41 0-2419.79 1083.38-2419.79 2419.79 0 1336.42 1083.38 2419.8 2419.79 2419.8 1336.42 0 2419.8-1083.38 2419.8-2419.8" fill="#d5f0dc"/><path d="m9772.15 5136.39c0-1305.33-1058.18-2363.51-2363.52-2363.51-1305.33 0-2363.52 1058.18-2363.52 2363.51 0 1305.34 1058.19 2363.53 2363.52 2363.53 1305.34 0 2363.52-1058.19 2363.52-2363.53" fill="#d6f0dc"/><path d="m9715.88 5136.39c0-1274.25-1032.99-2307.24-2307.25-2307.24-1274.25 0-2307.24 1032.99-2307.24 2307.24 0 1274.26 1032.99 2307.25 2307.24 2307.25 1274.26 0 2307.25-1032.99 2307.25-2307.25" fill="#d7f0dc"/><path d="m9659.61 5136.39c0-1243.17-1007.8-2250.96-2250.98-2250.96-1243.17 0-2250.97 1007.79-2250.97 2250.96 0 1243.18 1007.8 2250.98 2250.97 2250.98 1243.18 0 2250.98-1007.8 2250.98-2250.98" fill="#d8f1dc"/><path d="m9603.33 5136.39c0-1212.09-982.6-2194.69-2194.7-2194.69-1212.09 0-2194.69 982.6-2194.69 2194.69 0 1212.1 982.6 2194.7 2194.69 2194.7 1212.1 0 2194.7-982.6 2194.7-2194.7" fill="#d9f1db"/><path d="m9547.06 5136.39c0-1181.01-957.41-2138.42-2138.43-2138.42-1181.01 0-2138.42 957.41-2138.42 2138.42 0 1181.02 957.41 2138.43 2138.42 2138.43 1181.02 0 2138.43-957.41 2138.43-2138.43" fill="#daf1db"/><path d="m9490.78 5136.39c0-1149.93-932.21-2082.14-2082.15-2082.14-1149.93 0-2082.15 932.21-2082.15 2082.14 0 1149.94 932.22 2082.16 2082.15 2082.16 1149.94 0 2082.15-932.22 2082.15-2082.16" fill="#dbf2da"/><path d="m9434.51 5136.39c0-1118.85-907.02-2025.87-2025.88-2025.87s-2025.87 907.02-2025.87 2025.87c0 1118.86 907.01 2025.88 2025.87 2025.88s2025.88-907.02 2025.88-2025.88" fill="#dcf2da"/><path d="m9378.23 5136.39c0-1087.77-881.82-1969.59-1969.6-1969.59-1087.77 0-1969.6 881.82-1969.6 1969.59 0 1087.78 881.83 1969.61 1969.6 1969.61 1087.78 0 1969.6-881.83 1969.6-1969.61" fill="#ddf2da"/><path d="m9321.96 5136.39c0-1056.69-856.63-1913.32-1913.33-1913.32s-1913.32 856.63-1913.32 1913.32c0 1056.7 856.62 1913.33 1913.32 1913.33s1913.33-856.63 1913.33-1913.33" fill="#def3d9"/><path d="m9265.68 5136.39c0-1025.62-831.43-1857.05-1857.05-1857.05s-1857.05 831.43-1857.05 1857.05c0 1025.63 831.43 1857.06 1857.05 1857.06s1857.05-831.43 1857.05-1857.06" fill="#dff3d9"/><path d="m9209.41 5136.39c0-994.53-806.24-1800.77-1800.78-1800.77s-1800.77 806.24-1800.77 1800.77c0 994.54 806.23 1800.78 1800.77 1800.78s1800.78-806.24 1800.78-1800.78" fill="#e0f3d8"/><path d="m9153.14 5136.39c0-963.46-781.05-1744.5-1744.51-1744.5s-1744.5 781.04-1744.5 1744.5c0 963.47 781.04 1744.51 1744.5 1744.51s1744.51-781.04 1744.51-1744.51" fill="#e1f3d8"/><path d="m9096.86 5136.39c0-932.38-755.84-1688.22-1688.23-1688.22-932.38 0-1688.23 755.84-1688.23 1688.22 0 932.39 755.85 1688.24 1688.23 1688.24 932.39 0 1688.23-755.85 1688.23-1688.24" fill="#e2f4d8"/><path d="m9040.59 5136.39c0-901.3-730.66-1631.95-1631.96-1631.95s-1631.95 730.65-1631.95 1631.95c0 901.31 730.65 1631.96 1631.95 1631.96s1631.96-730.65 1631.96-1631.96" fill="#e3f4d7"/><path d="m8984.31 5136.39c0-870.22-705.45-1575.68-1575.68-1575.68-870.22 0-1575.68 705.46-1575.68 1575.68 0 870.23 705.46 1575.69 1575.68 1575.69 870.23 0 1575.68-705.46 1575.68-1575.69" fill="#e4f4d7"/><path d="m8928.04 5136.39c0-839.14-680.26-1519.4-1519.41-1519.4-839.14 0-1519.4 680.26-1519.4 1519.4 0 839.15 680.26 1519.41 1519.4 1519.41 839.15 0 1519.41-680.26 1519.41-1519.41" fill="#e5f5d6"/><path d="m8871.77 5136.39c0-808.06-655.07-1463.12-1463.14-1463.12-808.06 0-1463.13 655.06-1463.13 1463.12 0 808.07 655.07 1463.14 1463.13 1463.14 808.07 0 1463.14-655.07 1463.14-1463.14" fill="#e6f5d6"/><path d="m8815.49 5136.39c0-776.98-629.87-1406.85-1406.86-1406.85-776.98 0-1406.85 629.87-1406.85 1406.85 0 776.99 629.87 1406.86 1406.85 1406.86 776.99 0 1406.86-629.87 1406.86-1406.86" fill="#e7f5d6"/><path d="m8759.21 5136.39c0-745.9-604.67-1350.58-1350.58-1350.58-745.9 0-1350.58 604.68-1350.58 1350.58 0 745.91 604.68 1350.59 1350.58 1350.59 745.91 0 1350.58-604.68 1350.58-1350.59" fill="#e8f6d5"/><path d="m8702.94 5136.39c0-714.82-579.48-1294.3-1294.31-1294.3-714.82 0-1294.31 579.48-1294.31 1294.3 0 714.83 579.49 1294.32 1294.31 1294.32 714.83 0 1294.31-579.49 1294.31-1294.32" fill="#e9f6d5"/><path d="m8646.67 5136.39c0-683.74-554.29-1238.03-1238.04-1238.03-683.74 0-1238.03 554.29-1238.03 1238.03 0 683.75 554.29 1238.04 1238.03 1238.04 683.75 0 1238.04-554.29 1238.04-1238.04" fill="#eaf6d4"/><path d="m8590.39 5136.39c0-652.66-529.09-1181.75-1181.76-1181.75s-1181.76 529.09-1181.76 1181.75c0 652.67 529.09 1181.77 1181.76 1181.77s1181.76-529.1 1181.76-1181.77" fill="#ebf6d4"/><path d="m8534.12 5136.39c0-621.58-503.9-1125.48-1125.49-1125.48-621.58 0-1125.48 503.9-1125.48 1125.48 0 621.59 503.9 1125.49 1125.48 1125.49 621.59 0 1125.49-503.9 1125.49-1125.49" fill="#ecf7d4"/><path d="m8477.84 5136.39c0-590.5-478.7-1069.21-1069.21-1069.21-590.5 0-1069.21 478.71-1069.21 1069.21 0 590.51 478.71 1069.22 1069.21 1069.22 590.51 0 1069.21-478.71 1069.21-1069.22" fill="#edf7d3"/><path d="m8421.57 5136.39c0-559.43-453.51-1012.93-1012.94-1012.93s-1012.93 453.5-1012.93 1012.93 453.5 1012.94 1012.93 1012.94 1012.94-453.51 1012.94-1012.94" fill="#eef7d3"/><path d="m8365.3 5136.39c0-528.34-428.32-956.66-956.67-956.66-528.34 0-956.66 428.32-956.66 956.66 0 528.35 428.32 956.67 956.66 956.67 528.35 0 956.67-428.32 956.67-956.67" fill="#eff8d2"/><path d="m8309.02 5136.39c0-497.26-403.12-900.38-900.39-900.38s-900.38 403.12-900.38 900.38c0 497.27 403.11 900.4 900.38 900.4s900.39-403.13 900.39-900.4" fill="#f0f8d2"/><path d="m8252.75 5136.39c0-466.19-377.93-844.11-844.12-844.11s-844.11 377.92-844.11 844.11c0 466.2 377.92 844.12 844.11 844.12s844.12-377.92 844.12-844.12" fill="#f1f8d2"/><path d="m8196.47 5136.39c0-435.1-352.73-787.84-787.84-787.84s-787.84 352.74-787.84 787.84c0 435.11 352.73 787.85 787.84 787.85s787.84-352.74 787.84-787.85" fill="#f2f9d1"/><path d="m8140.2 5136.39c0-404.03-327.54-731.56-731.57-731.56s-731.56 327.53-731.56 731.56c0 404.04 327.53 731.57 731.56 731.57s731.57-327.53 731.57-731.57" fill="#f3f9d1"/><path d="m8083.93 5136.39c0-372.95-302.34-675.28-675.3-675.28-372.95 0-675.29 302.33-675.29 675.28 0 372.96 302.34 675.3 675.29 675.3 372.96 0 675.3-302.34 675.3-675.3" fill="#f4f9d0"/><path d="m8027.65 5136.39c0-341.87-277.15-619.01-619.02-619.01s-619.01 277.14-619.01 619.01c0 341.88 277.14 619.02 619.01 619.02s619.02-277.14 619.02-619.02" fill="#f5f9d0"/><path d="m7971.38 5136.39c0-310.79-251.95-562.74-562.75-562.74-310.79 0-562.74 251.95-562.74 562.74 0 310.8 251.95 562.75 562.74 562.75 310.8 0 562.75-251.95 562.75-562.75" fill="#f6fad0"/><path d="m7915.1 5136.39c0-279.71-226.75-506.46-506.47-506.46-279.71 0-506.47 226.75-506.47 506.46 0 279.72 226.76 506.47 506.47 506.47 279.72 0 506.47-226.75 506.47-506.47" fill="#f7facf"/><path d="m7858.83 5136.39c0-248.63-201.56-450.19-450.2-450.19-248.63 0-450.19 201.56-450.19 450.19 0 248.64 201.56 450.2 450.19 450.2 248.64 0 450.2-201.56 450.2-450.2" fill="#f8facf"/><path d="m7802.55 5136.39c0-217.55-176.36-393.91-393.92-393.91-217.55 0-393.92 176.36-393.92 393.91 0 217.56 176.37 393.93 393.92 393.93 217.56 0 393.92-176.37 393.92-393.93" fill="#f9fbce"/><path d="m7746.28 5136.39c0-186.47-151.17-337.64-337.65-337.64-186.47 0-337.64 151.17-337.64 337.64 0 186.48 151.17 337.65 337.64 337.65 186.48 0 337.65-151.17 337.65-337.65" fill="#fafbce"/><path d="m7690 5136.39c0-155.39-125.97-281.37-281.37-281.37-155.39 0-281.37 125.98-281.37 281.37 0 155.4 125.98 281.38 281.37 281.38 155.4 0 281.37-125.98 281.37-281.38" fill="#fbfbce"/><path d="m7633.73 5136.39c0-124.31-100.78-225.09-225.1-225.09-124.31 0-225.09 100.78-225.09 225.09 0 124.32 100.78 225.1 225.09 225.1 124.32 0 225.1-100.78 225.1-225.1" fill="#fcfccd"/><path d="m7577.46 5136.39c0-93.23-75.59-168.82-168.83-168.82s-168.82 75.59-168.82 168.82c0 93.24 75.58 168.83 168.82 168.83s168.83-75.59 168.83-168.83" fill="#fdfccd"/><path d="m7521.18 5136.39c0-62.15-50.39-112.54-112.55-112.54-62.15 0-112.54 50.39-112.54 112.54 0 62.16 50.39 112.56 112.54 112.56 62.16 0 112.55-50.4 112.55-112.56" fill="#fefccc"/><path d="m7464.91 5136.39c0-31.07-25.2-56.27-56.28-56.27s-56.27 25.2-56.27 56.27c0 31.08 25.19 56.28 56.27 56.28s56.28-25.2 56.28-56.28" fill="#fffccc"/></g><path d="m8418.89 5152.61c-281.59 110.06-481.14 384.06-481.14 704.6 0 32.36 2.05 64.25 5.99 95.54h475.15z" fill="#f7fbde" fill-rule="evenodd"/><path d="m6622.23 2032.62c.56 176.14-13.62 349.34-104.37 537.27-10.85 5.81-21.71 11.63-32.56 17.45 7.5 40.28-17.3 74.67-10.53 118.61-12.02 4.1-21.1 5.27-31.64 7.91-.28 42.06-15.24 54.01-18.46 84.33 12.31 7.04 21.68 11.15 36.91 7.92 6 15.37 12.73 26.34 29.01 39.53-.14 23.71-3.21 45.96-15.82 70.41-17.13 12.16-30.6 17.72-52.13 21.79-41.3 0-97.29 6.61-129.78 13.21-19.92-8.62-34.7-14.3-55.36-36.89-8.81-21.09-6.61-42.9 0-63.25 19.98-10.77 30.82-21.89 36.91-42.17 16.91-.08 25.4-1.98 34.27-7.91-17.14-2.93-29.88-5.13-44.81-13.17 3.36-27.75-13.39-45.98-5.28-71.16-15.97-2.48-27.54-4.25-39.84-10.41-18.33-31.64-20.52-56.66-23.43-89.75-14.94-1.76-31.34-10.85-43.35-17.75-4.2 64.75-48.79 96.45-64.74 172.21-12.15 3.96-22.84 7.19-34.26 8.95-41.52 74.14-8.15 107.89-47.46 171.75-9.67 0-23.4 1.49-40.01 8.8 27.25 2.79 38.79 5.54 66.38 17.11 6.01 19.17 8.35 29.54 2.63 52.38-11.29 10.1-18.17 34.14-18.46 53.04-57.72-5.13-85.34 12.49-145.25 8.08-33.2-12.46-50.25-26.41-160.55-21.25 5.31-20.65 1.78-36.91-10.54-55.35 1.6-13.92 4.68-26.35 15.82-39.53 19.74-6.23 41.1-8.66 71.18-10.54-20.32-10.05-38.12-9.21-53.53-10.55-11.64-34.98 1.76-48.3-15.43-87.14-4.11-.36-30.66-.44-38.18-.57-21.98-23.46-23.07-47.67-32.58-82.88-53.38 18.21-57.58-5.42-99.2 17.92-23.75-34.14-89.11-59.81-158.64-61.34-28-.62-43.54 9.76-73.02 28.96-11.42 35.8-31.65 42.23-40.86 74.36 6.74 11.77 23.73 12.95 32.66 11.57 8.55 11.12 12 21.52 12.16 38.5-13.03 14.73-20.21 27.62-23.72 50.39-67.35.29-72.89 33.14-131.82 28.68-9.88-7.82-20.14-12.73-39.54-15.81-5.86-22.92-11.01-37.41-27.1-53.74-4.82-16.91-1.6-35.29 6.02-43.77 11.93-.23 25.69-2.29 36.89-10.55-9.95-3.81-19.17-8.35-24.37-15.81-3.23-26.07-13.4-26.89-18.82-56.6 10.68.43 26.5-3.52 37.93-9.3-17.21-1.31-26.74-3.74-39.55-10.54-8.78-62.46-38.84-90.04-49.08-137.83 10.96-2.31 23.93-5.17 32.89-14.01-15.6-1.56-28.32-3.11-40.27-9.05-22.49-44.29-34.67-90.04-38.07-143.14-14.72-4.46-31.64-7.45-46.37-11.9-25.97-89.72-51.93-179.45-77.9-269.16 189.65-19.72 379.29-39.43 568.94-59.13 0 0 1177.77-82.59 1176.08-79.18zm-1016.1 539.31c28.21 4.52 46.53-1.21 63.4-7.66-26.39-3.43-46.58-2.43-64.55-13.18-.55-35.71 4.04-51.66 13.96-71.75-22.42-55.91-56.99-86.96-124.46-106.42-45.8 2.22-89.39 23.53-164.55 18.4-32.46 46.31-13.52 69.12-21.75 111.75-10.07 5.18-13.43 5.99-26.95 8.98 8.98 4.8 17.6 5.95 26.95 6.74-1.56 26.93-7.5 48.01-22.95 71.65 16.65 16.83 25.62 35.13 36.41 60.75 78.86 18.13 106.64 61.99 179.58 49.38 61.38-10.63 93.01-37.91 113.12-76.68.79-13.17-7.55-26.72-8.21-51.96" fill="#b2cdbc" fill-rule="evenodd"/><path d="m2410.04 3832.3c97.25 28.46 137.3 55.49 201.66 105.4 37.24 11.93 64.47 10.99 108.86 17.21-17.38 16.93-31.9 26.71-82.17 29.35-26.03 33.93-33.48 72.15-35.21 123.24 42.6 44.24 59.45 85.61 66.29 132.71 33.79 20.55 74.71 25.36 115.64 31.61-20.81 16-45.53 21.34-76.29 23.48-20.69 25.05-28.52 50.11-23.47 88.03 21.59 29.26 40.33 74.26 17.6 134.99 61.85 29.41 110.82 48.83 211.28 41.07 15.57-30.47 62.6-43.78 93.9-52.81-12.2-45.52-7.23-78.92 23.47-124.45 9.51-23.46 10.39-70.5-5.87-86.83-22.94 1.45-41.61-1.38-64.55-23.48 187.65-2.46 206.18-52.01 363.86-35.21 9.18-47.56 41.24-76.52 70.43-99.76 17.16-49.81 11.44-109.64 0-140.86-40.56-.68-79.68-1.35-117.38-23.47 47.3-.16 106.01-6.75 152.59-29.02-22.43-97.52 38.07-124.99 57.1-246.82-30.61 3.76-52.65-.33-77.56-6.57 44.35-8.35 65.91-13.14 83.14-28.64 11.21-31.97 13.84-75.38 5.03-118.8-38.3-32.36-52.29-54.71-67.71-104.21-29.04-18.75-63.8-31.78-108.56-27.66 94.62-51.25 153.5-21 258.14-75.12-7.83-103.16 19.43-229.04 57.78-336.4 81.87-229.16 140.59-456.6 253.17-684.7-570.19-26.4-1140.39-52.81-1710.58-79.23 75.51 539.95 153.89 1057.01 229.41 1596.95" fill="#95bdb7" fill-rule="evenodd"/><path d="m3073.22 2123.86c72.19 105.94 117.98 211.86 128.51 322.21 46 4.46 74.4 15.53 91.81 33.19-9.47 16.38-25.54 43.78-61.41 60.17 49.81 69.35 79.82 156.31 90.03 280.68 83.72 61.63 154.23 74.86 251.16 92.5 7.37 135.14 76.35 158.07 81.53 354.79 38.19 14.69 80.78 29.38 114.56 63.87 108.68 27.14 206.36 36.67 306.24 39.61-10.3 36.7-38.2 51.4-70.51 68.3-44.62 77.45-12.44 139.53 17.63 204.9 88.82 17.63 127.03 44.07 167.44 79.31 165.24-6.58 308.48 44.05 462.71 66.07 56.55-36.71 113.13-82.24 200.49-110.16 47.68-69.76 90.98-154.94 59.46-229.1-59.45-17.66-85.91-70.52-105.76-105.77-52.63-.76-87.61-10.34-118.24-22.09 77.78-13.23 115.97-30.85 154.16-66.07-9.55-48.45-8.08-85.89 4.39-132.13-24.94-3.32-44.4-9.93-61.66-26.43 11.02-15.41 30.82-24.23 49.52-34.15 29.71-76.39 52.83-202.2 56.18-287.36 35.24-37.42 66.07-46.24 105.71-52.85.01-118.9.02-198.19 26.44-290.68 30.85-25.64 59.49-37.06 96.88-48.46 13.21-199.67 66.07-284.81 140.94-422.8-708.12 52.68-1480.08 109.76-2188.21 162.45" fill="#fbca7c" fill-rule="evenodd"/><path d="m3073.22 2123.86c72.19 105.94 117.98 211.86 128.51 322.21 46 4.46 74.4 15.53 91.81 33.19-9.47 16.38-25.54 43.78-61.41 60.17 49.81 69.35 79.82 156.31 90.03 280.68 83.72 61.63 154.23 74.86 251.16 92.5 7.37 135.14 76.35 158.07 81.53 354.79 38.19 14.69 80.78 29.38 114.56 63.87 108.68 27.14 206.36 36.67 306.24 39.61-10.3 36.7-38.2 51.4-70.51 68.3-44.62 77.45-12.44 139.53 17.63 204.9 86.62-7.65 155.63-4.29 196.05 30.94 222.27-8.84 382.27 54.68 544.37-31.98 21.34-88.43 101.04-120.87 69.54-195.04-29.48-18.72-184.74-35.54-244.64-57.94 124.83-2.45 184.58-17.4 219.02-45.63-52.63-.76-87.61-10.34-118.24-22.09-67.6-7.35-161.62-7.58-339.32 9.35 179.28-70.93 286.64-39.88 439.68-88.6-9.54-48.44 45.72-72.71 58.19-118.95-24.94-3.32-44.4-9.93-61.66-26.43-55.92-13.29-104.4-5.71-167.19 1.74 78.56-38.77 125.6-48.56 186.12-64.32 29.7-76.4 17.43-175.97 20.78-261.13 35.23-37.42 68.26-63.83 107.9-70.45.01-118.9-32.99-178.39-6.57-270.88-9.9-19.08-179.5-9.61-206.4-33.15 167.52-22.96 184.85-51.38 194.62-72.87 29.36-64.48.73-125.84 119.59-263.99-708.13 52.68-1253.26 8.51-1961.39 61.2" fill="#f9b25f" fill-rule="evenodd"/><path d="m3880.71 3168.17s178.21 44 481.81-8.8c303.61-52.8-79.21 8.8-481.81 8.8" fill="#e89940" fill-rule="evenodd"/><path d="m3073.22 2123.86c72.19 105.94 117.98 211.86 128.51 322.21 46 4.46 74.4 15.53 91.81 33.19-9.47 16.38-25.54 43.78-61.41 60.17 49.81 69.35 79.82 156.31 90.03 280.68 83.72 61.63 154.23 74.86 251.16 92.5 7.37 135.14 76.35 158.07 81.53 354.79 38.19 14.69 80.78 29.38 114.56 63.87 108.68 27.14 206.36 36.67 306.24 39.61-10.3 36.7-38.2 51.4-70.51 68.3-44.62 77.45-12.44 139.53 17.63 204.9 86.62-7.65 155.63-4.29 196.05 30.94 213.48-57.24-275.54-127.93 40.57-141.98-22.66-59.83 223.76-72.87 62.92-82.84-138.74-8.6-103.06-85.49-30.95-105.34-226.45 2.45-135.39-95.34-438.4-126.61-198.41-20.48-57-61.75 3.51-77.52 73.71-122.6-127.76-255.16 293.59-320.53-76.97-15.41-288.13-.03-411.31 39.55 19.81-55.1 79.22-74.98 145.23-92.69-6.19-11.92-213.52-178.55 34.86-281.16 60.17-24.85 224.64-74.58 500.69-84.37-98.25-53.47-157.72 21.53-181.85-211.24-708.13 52.7-456.33-119.12-1164.46-66.43" fill="#e89940" fill-rule="evenodd"/><path d="m4305.6 3368c252.8 0 457.81-205.01 457.81-457.81 0-252.81-205.01-457.81-457.81-457.81s-457.82 205-457.82 457.81c0 252.8 205.02 457.81 457.82 457.81" fill="#fcd69c" fill-rule="evenodd"/><path d="m4510.46 3319.66c-44.71 2.13-97.47 5.98-160.91 12.03 88.35-34.96 159.24-45.14 226.73-52.31 65.53-48.13 117.76-113.27 150.22-188.9-33.92-.55-68.03 4.23-107.93 8.96 49.61-24.48 86.64-37.39 122.45-47.56 14.52-44.62 22.39-92.24 22.39-141.69 0-252.81-205.01-457.81-457.81-457.81s-457.82 205-457.82 457.81c0 252.8 205.02 457.81 457.82 457.81 73.64 0 143.22-17.43 204.86-48.34" fill="#fabe78" fill-rule="evenodd"/><path d="m4250.78 3364.72c10.83-8.47 24.83-15.52 40.58-19.86-181.87 1.97-158.98-60.71-299.86-101.67 69.47 65.56 159.44 109.61 259.28 121.53zm-375.93-299.19c-.78-98.42-60.67-193.23 275.21-245.33-56.04-11.22-183.2-6.12-295.75 12.76-4.27 25.11-6.53 50.9-6.53 77.23 0 54.53 9.56 106.83 27.07 155.34zm-5.51-294.46c4.84-1.35 9.72-2.68 14.64-4-.74-1.43-4.37-5.08-9.73-10.55-1.71 4.82-3.35 9.67-4.91 14.55" fill="#ebab5c" fill-rule="evenodd"/><path d="m4071 2657.77c-2.2-1.1-20.95-29.7-25.34-51.7 30.76-11.02 154.06-12.11 154.06-12.11s-68.22-20.89-135.29-20.89c8.68-17.57 31.95-39.62 68.28-45.11s425.61 37.4 491.61 55c-235.4 33.01-331.12-2.19-553.32 74.81" fill="#ebab5c" fill-rule="evenodd"/><path d="m4201.34 2948.16s247.58-3.93 442.83-42.28c73.14-14.38 84.03 16.01-137.1 42.66-221.13 26.63-305.73-.38-305.73-.38" fill="#ebab5c" fill-rule="evenodd"/><path d="m0 3802.52c60.8359 33.79 116.578 77.35 158.359 164.03 287.887 111.59 597.793 143.91 894.491 171.83 65.45 4.98 91.24 42.6 35.55 95.35 26.38 204.83 161.42 222.5 158.33 464.28 45.54 33.77 108.71 76.35 211.51 92.5-123.36 39.67-167.44 61.72-246.76 123.4 5.86 95.47-14.71 173.32-88.13 299.64 124.83 66.09 179.18 136.59 229.13 211.5 374.13 150.02 744.9 162.96 1066.36 35.25-1.45-102.8 54.35-152.74 114.56-202.69-33.77-121.9-36.7-204.16-8.81-299.64-94-83.71-183.61-118.96-282.01-158.63 55.8-14.69 102.81-29.38 145.41-66.08.02-198.28 92.52-242.39 101.35-453.88-41.53-34.83-53.36-45.49-114.57-61.68 70.47-21.32 101.34-47.03 132.2-96.95-52.84-336.32 74.9-439.21 105.75-784.34 76.37-66.1 121.91-118.99 176.26-237.95-63.12-138.05-29.35-236.47 35.24-334.89 56.15-18.39 99.12-42.28 132.2-88.12-32.28-174.77 58.75-270.26 88.13-405.39l-3044.55-218.07z" fill="#f9b25f" fill-rule="evenodd"/><path d="m0 3802.52c60.8359 33.79 116.578 77.35 158.359 164.03 287.887 111.59 597.793 143.91 894.491 171.83 65.45 4.98 91.24 42.6 35.55 95.35 26.38 204.83 161.42 222.5 158.33 464.28 45.54 33.77 108.71 76.35 211.51 92.5-123.36 39.67-167.44 61.72-246.76 123.4 5.86 95.47-14.71 173.32-88.13 299.64 124.83 66.09 201.2 114.58 251.15 189.48 338.9 79.55 674.38 101.3 978.23 30.85-93.85-135.8 14.86-159.33 154.27-182.87-34.07-61.83-152.08-60.01-278.27-125.78 132.31 10.72 208.1-16.44 224.9-33.57-12.83-29.21-15.72-60.66-4.43-75.3 22.59-29.29 46.86-33.31 75.39-58.39-94-83.71-183.61-118.96-282.01-158.63-41.03-16.6-84.77-30.35-135.3-37.6 109.8-40.12 177.54-45.24 230.11-39.48 0-33.23 12.4-87.26 26.11-127.69 1.88-5.53-81.78 31.85-254.48 2.35 194.03-22.41 276.46-53.15 283.94-70.98 28.06-66.88 42.18-94.92.34-126.58-42.11-31.85-34.44-47.36-27.15-95.52 2.19-14.49 67.6-10.13 123.19-24.46-41.53-34.83-53.36-45.49-114.57-61.68-91.94-24.85-127.93-27.07-352.77-31.98 157.09-61.95 351.29-87.34 436.56-80.37-18.66-57.13-28.33-112.42-32.17-165.28-79.11-18.05-239.4-42.5-554.19-5.11 218.89-78.1 288.76-67.99 552.84-87.3 3.57-90.21 19.96-171.36 30.09-240.09-37.54-2.96-63.94-10.02-163-47.59 114.33-.15 178.04-8.86 182.11-23.92 15.68-58.08 36.91-112.92 36.01-167.78-129.46 30.2-312.09 11.75-640.27-84.34 226.73-3.62 723.13 29.97 813.29-194.28-63.12-138.06-33.74-271.72 30.86-370.14-115.83-19.14-177.92-4.79-248.08-5.56 172.99-72.2 378.99-38.26 393.47-58.32-10.09-54.6-5.13-99.98 7.37-140.67 2.36-7.68-52.61-19.62-119.76-27.01 69.19-25.71 139.28-23.32 145.95-36.64 30.51-60.94 70.26-115.99 85.4-185.67-1014.69-72.68-1969.57-141.36-2978.48-213.66z" fill="#e89940" fill-rule="evenodd"/><path d="m0 3802.52c60.8359 33.79 116.578 77.35 158.359 164.03 255.407 108.21 618.059 149.74 894.491 171.83 65.45 4.98 91.24 42.6 35.55 95.35 26.38 204.83 161.42 222.5 158.33 464.28 45.54 33.77 108.71 76.35 211.51 92.5-123.36 39.67-167.44 61.72-246.76 123.4 5.86 95.47-14.71 173.32-88.13 299.64 154.75-103.09 317.84-64.29 540.88-127.25-73.8-16.26-178.3-36.71-196.45-54.32-18.16-17.6 85.44-9.07 22.3-46.14-137.24-80.56 107.67-19.82 247.72-34.06-21.04-20.66-58.85-19.96-153.85-39.78-169.53-35.38-137.59-123.25-3.26-107.95 112.6 12.83 255.45 2.75 448.49-11.31 55.8-14.69-596.8-51.38-554.2-88.08 0-74.36-45.02-124.56-87.15-180.89 68.62-.21 155.71-2.07 290.78-45.04-180.87 10.69-269.9.23-353.73-17.97-68.6-57.44-122.15-129.53-118.02-228.66 220.11-65.58 414.76 33.6 555.63-29.84-153.94-12.51-336.94-49.21-418.28-85.92 36.58-53.9 140.29-100.57 246.7-135.46-132.77-32.77-274.13-8.11-396.91-1.53-94.5-9.59-304.723-15.22-490.633-44.94 136.949-6.09 364.203-15.78 649.913-125.33-483.362 59.95-940.932 41.17-968.862 15.33-119.102-110.18 132.027-303.28 140.66-399.91 13.574-11.36 270.906-27.38 331.692-117.41-146.372 1.87-280.836-15.18-459.129-62.05-86.469-22.74 126.8-10.56 123.504-73.08-91.625 4.49-149.653-2.98-232.297-31.58-64.789-67.56-121.078-137.61-136.149-199.29 290.403 19.59 451.395 47.56 789.801-58.42-356.879 51.5-679.52 8.78-795.32-44.65 34.324-112.72 105.707-123.63 134.718-195.68 731.622 23.4 939.152-215.21 968.532-350.35-259.344-105.97-331.547-168.17-1250.43-239.55z" fill="#d28632" fill-rule="evenodd"/><path d="m945.215 3574.26s554.945-22.02 863.245 13.22c308.3 35.23-171.76-79.28-453.65-66.07-281.86 13.22-409.595 52.85-409.595 52.85" fill="#d28632" fill-rule="evenodd"/><path d="m804.277 3151.45s211.403-74.87 400.793-88.09c189.38-13.21 270.9 110.11 453.64 162.97-317.12-22.03-262.98-181.73-854.433-74.88" fill="#d28632" fill-rule="evenodd"/><path d="m1652.7 2270.14c-12.58 340.29 131.4 380.11 91.01 687.64 47.97 4.67 73.27 16.89 91.01 40.45-35.78 12.22-60.24 19.41-80.9 40.46-50.48 139.87-32.81 262.08 0 404.49 75.79 5.08 78.38 42.97 121.35 60.67 168.09-10.95 201.08-74.96 313.49-91.01 54.7-133.99 33.68-273.02 20.22-394.38-16.85-16.86-43.8-23.62-60.66-40.47 8.48-46.75 34.65-88.11 80.89-131.45 47.4-44.42 117.13-61.5 171.91-80.9 11.8-111.2 51.38-169.36 50.56-242.69 27.41-9.3 67.42-22.38 101.13-50.57.88-61.08 30.74-114.61 55.56-171.91-303.37-10.11-652.18-20.22-955.57-30.33" fill="#d28632" fill-rule="evenodd"/><path d="m1652.7 2270.14c-12.58 340.29 131.4 380.11 91.01 687.64 47.97 4.67 73.27 16.89 91.01 40.45-35.78 12.22-60.24 19.41-80.9 40.46-50.48 139.87-32.81 262.08 0 404.49 49.34-12.56 93.52-7.51 136.5 10.18 135.32-14.73 130.4-64.85 242.8-80.91 29.43-72.1 18.18-84.74-61.04-105.18 52.59-11.31 94.94 3.16 98.03-17.43 7.46-35.43 11.65-69.17 9.95-93.75-33.23-27.57-93.83-41.66-165.92-41.13 45.72-15.83 132.24-8.2 166.45 7.08 3.71-33.52 32.29-67.55 28.29-103.58-16.85-16.86-43.8-23.62-60.66-40.47-25.49-11.69-81.24-16.13-112.02-15.97 1.92-44.56 62.16-74.88 114.62-81.81-17.78-14.72-54.94-9.06-51.34-15.73 19.23-35.5 27.46-42.85 75.68-53.44-35.97-29.31-140.33-28.38-190.46-42.6 31-54.48 287.21-32.53 381.04-20.43-1.04-67.36 41.56-117.83 48.99-147.35-17.09-10.8-44.64-14.98-82.28-18.44 22.86-10.06 52.52-10.08 88.27-4.42 6.96-18.65 10.94-34.3 10.72-55.5-23.29-15.4-41.6-31.01-160.79-45.74 76.91-37.9 192.55-32.41 253.08-19.29.88-61.09 23.19-99.5 48.01-156.8-303.38-10.11-615.65-20.22-919.04-30.33" fill="#bd7223" fill-rule="evenodd"/><path d="m1652.7 2270.14c-12.58 340.29 131.4 380.11 91.01 687.64 47.97 4.67 73.27 16.89 91.01 40.45-35.78 12.22-60.24 19.41-80.9 40.46-50.48 139.87-32.81 262.08 0 404.49 49.34-12.56 93.52-7.51 136.5 10.18-10.98-27.56-37.08-44.1-97.93-57.95-49.42-11.26-27.58-76.89-20.38-149.7 4.26-43.08 78.15-98.44 121.89-118.32-36.25-.12-77.13 22.52-97.96 14.36-23.61-9.27-17.38-48.25 9.5-83.02 22.59-29.22 75.08-62.85 138.8-80.33.53-12.3-81.16-56.06-8.56-96.18-6.21-7.14-32.17-.5-55.04-2.7 13.47-27.01-50.19-67.42 42.75-105.17 0-10.56-51.77-6.81-56.26-47.89-15.96-145.71-64.43-215.69 134.03-247.78-4.15-34.63-82.81-35.26-42.86-190.83-48.41-15.16-209.22-20.22-305.6-17.71" fill="#ae621e" fill-rule="evenodd"/><path d="m3616.77 2449.05c19.01 35.89 14.46 59.42 13.16 103.73-1.95 66.01.75 128.56 24.22 128.94 32.67.51 34.1-154.67 31.13-208.61-2.87-52.26-29.01-89.83-66-125.51 3.75-110.41 4.78-220.22-2.7-330.39-4.88-17.45-52.31-13.1-55.3-5.23-7.28 75.03-7.61 130.89-10.08 214.32-.23 8.04-.8 85.88-1.57 97.98-40.28 9.1-86.52 66.36-94.58 141.74-8.05 75.37-10.54 148.79 22.85 143.04 33.39-5.76 27.32-71.26 30.62-120.5s22.8-78.47 36.3-85.34c2.81 32.46-4.45 85.14-2.48 117.94 2.44 40.75 10.89 56.86 29.13 57.62 33.04 1.38 42.51-57.45 45.3-129.73" fill="#6d9561" fill-rule="evenodd"/><path d="m8418.89 2164.54c-132.16 21.03-275.39 50.7-405.11 89.07-409.35-143.61-1141.33-130.66-1564.9-50.37-545.13 103.34-1190.43 129.66-1190.43 129.66-909.22-497.98-1655.61-26.54-2545.88 141.44-825.64-266.11-1477.07-184.14-2192.281-23.58 0 0-213.031-87.69-520.289-139.79v-820.42l8418.89-87.7z" fill="#fffccc" fill-rule="evenodd"/><path d="m0 2169.02c117.313 3.8 233.727 15.52 293.457 44.2 147.324 70.73 518.559 135.49 651.133 58.89-33.145-258.76 1856.38-309.37 1502.79-32.38 111.97 82.5 330.01 70.71 477.35 0 147.32-70.73 129.65-188.59 265.19-200.37 135.54-11.79 76.61 111.97 76.61 111.97s253.41 41.25 642.36-153.22c388.96-194.48 677.72-47.15 807.38-5.9 129.65 41.25 377.17 153.22 612.89 106.08-82.5-35.36-153.22-88.4-88.4-170.91 64.83-82.5 481.82-48.58 511.25 70.77 29.44 119.36-61.92 163.51-86.93 176.75 163.3 47.07 642.31 26.52 1066.63-179.76 424.31-206.25 206.31-220.98 206.31-220.98l-6938.02-208.47z" fill="#fffa99" fill-rule="evenodd"/><path d="m1256.7 2087.15s-49.28 384.59-31.79 623.04 139.87 174.69 152.59-47.83c.04-.76.08-1.52.12-2.28 11.62 10.99 23.86 27.09 32.2 50.2 20.65 57.19-34.93 303.45 55.6 324.12s76.24-317.75 36.54-406.71c-24.66-55.26-79.35-92.74-117.26-113.21 7.91-188.61 11.86-380.87 11.86-420.97-41.27-19.12-92.25-19.06-139.86-6.36" fill="#739e67" fill-rule="evenodd"/><path d="m1256.7 2087.15s-49.28 384.59-31.79 623.04c17.16 233.92 108.68 157.06 124.15-56.01.3-4.12 1-27.18 1.24-31.41 7.9 16.58 20.23 31.38 27.32 37.31 11.62 10.99 23.86 27.09 32.2 50.2 14.04 38.87-7.14 165.1 6.27 248.45 6.32 39.28 25.02 49.28 46.74 49.83 70.47 1.77 48.87-331.17 14.96-380.87-15.02-22.04-39.69-50.31-67.15-70-16.48-11.81-33.96-20.54-50.98-22.96.68-16.07 2.23-41.66 4.03-75.34 4.44-82.86 10.42-214.73 8.71-374.66-36.11-9.87-77.02-7.91-115.7 2.42" fill="#598454" fill-rule="evenodd"/><path d="m6852.09 2053.61c-5.45 279.13-163.82 453.06-120.7 584.67-25.85 25.48-60.67 49.16-102.7 56.68 13.83 22.79 36.64 30.31 57.66 36.04 26.64 102.29-8.66 145.33 7.2 223.39-39.86 6.91-40.23 25.5-59.45 35.11 36.95 17.39 71.7 27.6 123.02 32.43 15.09 29.71 23.02 52.73 22.91 83.79 33.95 20.33 58.88 25.48 93.68 28.82-10.46 44.75-11.94 79.61 14.41 136.92-93.64 54.58-190.86 83.97-318.68 82.79-92.49-81.59-251.53-30.05-439.36-104.44 20.06-38.72 31.15-69.36 15.3-114.36 24.91 2.39 43.53 1.19 71.12-8.99 4.26-40.78 24.67-68.1 61.23-89.13 62.67-2.44 92.11-14.74 124.25-36.92 17.24 2.23 28.22.43 41.42-2.7-26.22-7.51-29.19-25.3-61.22-25.21 12.23-75.88-27.59-120.33-25.22-183.65 40.17-24.32 58.79-50.44 72.04-82.84-53.99-15.35-94.5-51.33-118.86-82.83 9.27-42.93 5.99-94.83-18-136.86-33.4-11.14-52.49-26.75-72.03-46.82 18.58-137.45-45.6-247.92-46.82-396.15-16.81-.92-33.61-9.03-50.42-21.61-20.99-56.42-32.99-111.05-25.2-169.27 259.29 25.22 518.59 50.42 777.89 75.64-7.83 41.83-15.65 83.67-23.47 125.5" fill="#fbca7c" fill-rule="evenodd"/><path d="m6852.09 2053.61c-5.45 279.13-208.79 420.68-165.66 552.3-9.71 35.34-36.38 62.64-72.09 88.15 13.82 22.79 38.41 36.14 59.43 41.86-24.17 27.09-45.07 40.24-99.39 46.7 26.17 11.31 34.8 13.57 69.98 14.56 26.36-1.5 11.8 31.84-45.85 47.93 11.9 29.27 16.11 58.29 40.28 74.27 22.98 14.1-22.27 27.29-4.69 70.12 36.95 17.39 71.7 27.6 123.02 32.43-27.47 22.94-138.16 14.63-129.18 25.23 37.97 44.77 65.95 54.7 152.09 58.56 33.95 20.33 58.88 25.48 93.68 28.82-38.9 25.52-74.55 24.42-109.56 23.23-65.42-2.24 60.41 43.71 68.21 97.5-93.64 54.58-177.19 46.14-226.9 41.36-92.49-81.59-226.33 13.16-414.16-61.23 17.38-23.96 32.83-37.01 16.98-82.01 15.57 1.49-33.68-4.29-62.92-17.94 39.95 3.38 53.59-4.04 71.14-8.99 118.27 9.08 211.34-12.69 139.92-39.37 34.6-15.87.59-27.87-19.81-30.56-24.3-3.21-39.21-10.24-58.88-19.2 62.67-2.44 92.11-14.74 124.25-36.92 17.24 2.23 28.22.43 41.42-2.7 2.51-13.79-5.85-43.26-37.88-43.16 19.62-36.6-.57-64.75-13.2-90.4 19.23-5.58 55.41-2.82 80.95-12.29-59.46-10.53-103.66-39.45-102.84-61.22 40.17-24.31 63.28-55.82 76.51-88.22-53.97-15.35-79.23-58.53-103.58-90.03 2.06-9.53 3.51-19.42 4.27-29.5.49-6.46 44.03 11.76 137.09-7.96-108.7.61-136.9-24.88-137.55-31.48-1.41-14.09-4.22-28.16-8.53-41.72-2.64-8.34 58.07-26.79 54.25-34.68-56.2 3.63-137.6-11.05-157.13-31.13 4.35-32.22 5.46-63.21 4.62-93.65-.24-8.93 20.23-19.54 53.53-30.31-30.18-.79-56.02-14.13-56.82-22.94-7.3-80.67-23.5-160.66-24.26-253.75-53.61-9.01-31.06-21.07-3.87-24.67-21-56.43-19.06-88.65-11.27-146.87 259.29 25.21 418.57 39.16 677.87 64.38-7.83 41.83-15.65 83.67-23.47 125.5" fill="#f9b25f" fill-rule="evenodd"/><path d="m8418.89 4225.57c-260.82 33.85-614.55 32.14-853.38-96.57 11.97-83.47 5.97-161.54-28.83-245 7.82-13.82 27.32-28.99 50.45-36.04-21.86-33.09-34.58-40.84-64.86-50.44-24.03-78.71-51.64-211.39-109.84-306.29 49.2-8.41 85.81-25.82 106.24-55.81 27.95-15 63.99-26.38 108.1-29.71-14.51-62.63-46.01-96.16-82.88-127.04-110.17-18.31-240.45-46.46-317.07-115.3-7.24-126.69-75.65-195.81-86.49-331.48-46.22-14.74-85.25-30.36-122.5-57.65-2.14-40.24-6.06-77.78-36.03-115.3-186.72-30.07-342.87-65.53-490.02-165.75 4.78-55.25-1.23-96.1-28.83-149.56-55.86-4.2-144.1-30-196.37-59.4.59-60.64-36.61-69.1-34.22-129.73 24.03-23.41 53.45-34.23 93.68-43.24-8.94-76.88-33-148.37-86.45-248.64 716.93-67.85 1459.39-158.03 2179.3-228.49z" fill="#e89940" fill-rule="evenodd"/><path d="m8418.89 4025.18c-346.51 16.2-478.1 245.09-802.94 71.38 11.98-83.47-22.03-129.1-56.83-212.56 7.82-13.82 59.64-28.99 82.77-36.04-21.85-33.09-60.56-49.84-90.84-59.44-18.32-63.89 57.84-110.29 33.03-170.41-136.24-65.8 116.15-121.45 100.68-153.33-134.6 1.97-138.24 48.48-272.33 26.45 49.2-8.41 85.81-25.82 106.24-55.81 27.95-15 63.99-26.38 108.1-29.71 15.79-1.74 32.01-2.17 48.48-1.58-23.51-70.84-48.61-100.4-108.92-139.83-47.2-59.69-83-104.05-292.74-122.52-1.81-31.67-7.79-58.74-15.89-83.63-8.35-25.67-.04-64.8 249.17-76.4-173.39-59.09-132.55-33.81-211.98-57.75-90.01-27.14-110.34-62.04-113.17-97.52 44.53-20.83 143.69-42.6 116.87-49.12-34.51-8.4-232.83-.37-253.78-15.72-2.13-40.23 15.52-92.16-14.44-129.69-186.73-30.06-314.02-67.33-461.17-167.55 4.78-55.25 33-99.72 5.39-153.17-55.86-4.22-165.7-22.81-217.97-52.21.13-13.33-16.02-31.82 16.97-52.36-117.61-51.82 53.79-61.09 136.98-74.21-27.02-9.86-164.12-8.99-278.21 22.05 24.03-23.41 53.45-34.23 93.68-43.24-8.94-76.88-33-148.37-86.45-248.64 716.93-67.85 1459.39-158.03 2179.3-228.49z" fill="#d28632" fill-rule="evenodd"/><path d="m8416.95 3386.66s-149.51-27-388.94-18.01c-80.2 0-38.68-13.97 42.02-23.47 100.52-11.84 256.88-19.74 256.88-19.74-19.78-125.93-136.36-161-160.72-243.43-29.69-100.55-77.47-271.23-105.77-282.37-156.53 23.38-290.12 19.79-496.99 3.6 249.01-19.22 348.71-18.63 493.39-68.43 24.57-45.62 18.58-102.04-14.4-172.86-172.84-55.77-248.54-.01-423.17-18.01 84-11.41 130.23-30.01 174.67-50.42 13.96-93.22-101.61-94.69-134.41-160.91-30.81-62.22 6.73-128.04-56.47-224.43-97.26-27-189.11-34.2-356.54-32.42 73.23-26.4 137.46-38.4 219.69-36.01-45.61-48.02 25.7-114.03-138.65-144.06 363.19-71.16 727.93-142.31 1091.35-213.46v1668.23z" fill="#c67725" fill-rule="evenodd"/><path d="m7738.46 1899.31c6.05 102.06 67.87 195.12 115.29 252.21 24.04 12.88 41.43 16.35 77.14 13.97-25.62 12.34-39.67 19.24-48.31 29.28 7.84 94.85 37.26 157.32 93.68 230.59 158.46 49.54 318.2 57.35 442.63 53.42v-732.9z" fill="#ae621e" fill-rule="evenodd"/><path d="m7748.33 1908.28c2.06 34.72 54.79 73.87 98.61 73.2-14.96 23.62-31.77 24.3-26.96 49.23 6.7 34.6 109.13 113.88 153.65 119.75-21.2 4.36-23.59 11.52-42.74 15.03-25.62 12.34-39.67 19.24-48.31 29.28 79.31 22.28 157.28 23.53 231.64 19.9-22.5 27.02-132.09 44.52-49.87 79.69 60.62 25.93-71.74 21.92-59.31 59.04 7.15 21.32 34.8 39.18 103.44 43.32 62.04 3.73 214.82 21.78 310.41-37.34v-613.33c-225.5 52.28-443.8 111.1-670.56 162.23" fill="#9a541d" fill-rule="evenodd"/><path d="m0 2062.59c460.621 6.69 1763.21 35.61 2158.61 151.34 1605.34-418.79 3359.53-502.03 4985.67-176.8 248.9-71.11 678.86-122.12 1274.61-198.52v-1838.61h-8418.89z" fill="#feec65" fill-rule="evenodd"/><path d="m0 1913.55c90.1367 5.79 316.875 3.56 496.715-139.39 229.84-182.7 654.145-194.47 789.695-176.8 135.54 17.68 64.82 135.55-53.04 147.34-117.87 11.78 253.41 35.35 506.82-41.26 253.4-76.62 442.45-57.7 630.57 41.26 222.22 116.88 415.89-37.23 524.5-135.55 204.01-184.68 1349.54-111.97 984.17 153.23 754.05 148.87 1339.95-376.22 2086.21-165.02 60.49 17.12 1460.69 366.93 1314.18-58.93-63.34-184.11 208.2-195.41 416.7-132.18 222.34 67.44 455.41 207.64 722.37 266.58v-642.29l-8418.89-264.036z" fill="#fddf4c" fill-rule="evenodd"/><path d="m8418.89 1231.16c-1918.5-75.48-3631.91 401.57-3631.91 401.57s-2566.47-422.16-4786.98-241.76v-1390.97h8418.89z" fill="#f4c431" fill-rule="evenodd"/><path d="m430.961 2857.92c-34.785 52.72-60.141 125.95-61.344 205.22-3.39 224.98 18.196 439.29-110.5 441.35-128.691 2.06-101.32-249.05-93.988-461.76 7.238-210 114.258-382.57 255.957-453.59-2.926-85.94-5.816-164.71-9.914-230.85-26.934-435.11 53.285-1075.05 53.285-1075.05 19.254-68.75 189.762-51.56 201.523-20.54 28.692 295.6 29.965 515.71 39.7 844.44.937 31.65 3.136 72.3 6.172 119.97 261.058 80.87 325.468 192.23 356.288 480.71 32.64 305.52 41.54 586.3-90.015 563.61-131.547-22.68-104.098-297.32-120.648-544.35-9.45-141.03-73.457-202.79-126.649-229.85 14.067 196.73 29.809 430.06 35.695 646.85 9.161 336.97 33.008 619.15-79.3 621.99-191.602 4.84-237.063-471.97-256.262-908.15" fill="#598454" fill-rule="evenodd"/><path d="m430.961 2857.92c-1.25-24.51-3.356-59.99-6.277-55.78-91.797 74.68-93.676 192.33-94.786 265.42-16.632 224.98-9.882 386.26-67.835 394.26-51.083 7.06-89.305-11.03-99.18-91.29-11.195-90.96-1.649-214.8 2.246-327.8 7.238-209.98 114.258-382.57 255.957-453.59-2.926-85.94-5.816-164.71-9.914-230.85-26.934-435.11 53.285-1075.05 53.285-1075.05 14.113-62.13 139.754-50.83 176.481-38.17 3.675 294.14-6.836 439.1 8.785 782.55 1.433 31.61-4.164 154.76 35.648 230.39 124.254 54.59 251.809 103.44 315.119 253.85 20.23 48.08 24.66 107.85 32.34 179.78 31.72 296.99 39.92 555.45-69.416 534.18-50.531-9.82-59.527-40.33-68.547-113.94-13.105-106.86-13.601-259.77-22.672-384.81-12.437-171.46-85.941-210.88-125.183-237.19-18.207-7.36-21.028-9.58-29.383-10.95-9.738-20.22-12-27-18.52-46.09-23.207 41.87-27.273 156.47-25.062 201.14 8.117 163.9 17.476 348.95 29.168 508.62 24.617 336.19 60.969 517.56-51.336 520.39-109.266 2.76-135.672-48.06-172.113-261.74-27.457-160.98-40.555-355.91-48.805-543.33" fill="#496c44" fill-rule="evenodd"/><path d="m746.211 3719.77c-19.168-258.66-123.422-1714.43-99.5-2471.76-3.02-1.25-6.324-2.42-9.863-3.52-24.875 773.84 84.886 2281.83 100.547 2491.42 3.179-4.84 6.113-10.23 8.816-16.14" fill="#374e35"/><path d="m687.48 3766.05c-22.281-187.03-170.75-1490.18-110.453-2530.41-3.32-.09-6.656-.11-9.996-.07-60.117 1038.45 87.496 2338.06 110.356 2530.29 3.238.19 6.508.3 9.836.21z" fill="#374e35"/><path d="m630.609 3751.69c-38.875-190.78-234.156-1239.53-109.703-2510.81-3.527.84-6.968 1.8-10.304 2.86-121.875 1250.94 65.242 2285.95 108.269 2500.3 3.84 2.79 7.746 5.37 11.738 7.65" fill="#374e35"/><path d="m739.313 2501.81c-12.411-16.9-29.161-49.33-42.024-86.86-10.504-30.63-18.351-64.51-19.027-95.84l-.016-.67c-.375-23.09 5.25-45.92 14.266-63.02 7.101-13.48 16.172-23.22 25.765-26.28-2.14-.68-4.257-1.36-6.425-2.03l-.375-5.97c-10.739 4.91-20.383 15.58-27.789 29.63-9.735 18.46-15.805 43.04-15.403 67.84v.02l.016.68c.703 32.55 8.762 67.46 19.531 98.88 13.273 38.72 30.781 72.41 43.777 89.97l-.781-10.93c2.805 1.43 5.633 2.96 8.485 4.58" fill="#374e35"/><path d="m432.766 2884.89c-.028-.65-10.301-227.36-11.766-310.93h-.434l.52 15.18c-3.227 1.61-6.422 3.3-9.606 5.02 2.067 80.42 8.696 232.16 10.727 277.82 2.844-4.83 5.762-9.52 8.754-14.06.394 8.98.809 17.99 1.227 26.99z" fill="#374e35"/><path d="m698.246 2439.43c.531.05 187.277 17.26 207.606 313.44 6.558 95.69 8.359 180.07 9.875 251.91 2.597 122.53 4.445 209.12 28.183 252.99 5.891 3.99 12.258 7.21 19.11 9.67-32.434-32.4-34.387-124.01-37.332-262.85-1.528-72.16-3.329-156.89-9.875-252.38-20.911-304.63-215.954-322.65-216.512-322.71z" fill="#374e35"/><path d="m675.777 2354.46c.606.17 210.84 59.62 257.055 192.5 16.398 47.14 28.148 137.13 36.492 235.97 15.418 182.55 19.121 394.89 19.121 424.43 0 22.36-1.781 37.42-4.629 48.8-1.472 5.91-3.246 10.85-5.207 15.34 3.559.59 7.012.96 10.368 1.11 1.675-4.16 3.211-8.74 4.535-14.02 3.031-12.16 4.933-28 4.933-51.23 0-29.59-3.711-242.32-19.16-425.25-8.402-99.52-20.305-190.33-37.035-238.43-47.934-137.81-263.125-198.65-263.738-198.82z" fill="#374e35"/><path d="m685.996 2266.15c.856.26 298.539 88.84 330.464 321.03 13.08 95.12 20.87 194.12 25.2 283.71 6.39 131.75 5.33 243.13 2.71 292.07-1.83 34.26-9.35 60.12-19.15 79.04-6.89 13.31-14.85 23.12-22.68 29.97 6.91-1 13.34-3.05 19.28-6.11 4.31-5.53 8.46-11.93 12.26-19.29 10.38-20.03 18.33-47.25 20.25-83.1 2.63-49.14 3.7-160.93-2.7-293.05-4.36-89.85-12.17-189.13-25.29-284.57-32.805-238.58-336.578-328.96-337.453-329.23z" fill="#374e35"/><path d="m237.117 3502.05c-13.308-15.92-33.191-53.36-28.156-307.63 2.934-148.26 15.394-245.06 34.43-313.9 18.918-68.41 44.375-109.14 73.449-145.49 58.094-72.61 101.008-89.76 101.129-89.82l-3.867-9.17c-.133.05-45.325 18.14-105.036 92.78-29.824 37.27-55.918 79.02-75.281 149.04-19.246 69.57-31.832 167.17-34.785 316.36-4.18 211.35 9.379 275.89 22.266 301.68 4.918 2.64 10.187 4.72 15.851 6.15" fill="#374e35"/><path d="m266.926 3504.05c-1.356-13.32-4.41-57.53.324-158.17 1.23-26.22 1.953-58.32 2.746-93.5 2.934-130.88 6.844-304.91 42.469-388.81 45.058-106.1 109.984-152.26 110.168-152.4l-5.895-8.04c-.191.14-67.3 47.87-113.453 156.54-36.359 85.63-40.297 260.79-43.25 392.52-.781 34.9-1.5 66.75-2.746 93.22-4.668 99.23-1.781 144.4-.355 159.05.73 0 1.445.04 2.183.03 2.676-.04 5.262-.21 7.809-.44" fill="#374e35"/><path d="m289.883 3499.05c14.98-26.57 34.187-80.44 33.269-181.4-.734-81.5 1.899-162.36 7.34-232.33 5.309-68.28 13.293-126 23.399-163.55 20.175-74.93 73.222-117.94 73.371-118.07l-6.324-7.73c-.157.12-55.672 45.14-76.696 123.21-10.273 38.16-18.351 96.52-23.711 165.4-5.449 70.03-8.082 151.17-7.34 233.15 1.039 113.95-23.175 165.15-37.113 185.12 4.852-.91 9.442-2.19 13.805-3.8" fill="#374e35"/><path d="m0 400.84c321.625 72.012 1186.62 256.094 1863.95 312.539 848.62 70.723-330.03-82.512-141.45-282.871 188.59-200.371 1308.3 70.715 1732.62 223.933 424.31 153.227 1025.42 176.797 1025.42 176.797-168.97-244.566 34.85-468.472 479.78-532.371 502.99-72.226 995.17 123.528 1906.98-86.418-808.82 293.969-840.25 457.192-792.05 559.465 70.43 149.492 512.37 215.156 1269.4-11.387 533.01-159.511 788.48 42.532 1074.24 131.016v-891.543h-8418.89z" fill="#ecb622" fill-rule="evenodd"/><path d="m7501.54 1300.01 70.26-3.76c-22.14-10.39-44.28-20.79-66.42-31.19-7.09 9.71-9.25 22.72-3.84 34.95" fill="#374e35" fill-rule="evenodd"/><path d="m7122.3 947.539-68.13 17.606c23.76 5.8 47.52 11.601 71.29 17.406 5.02-10.91 4.55-24.094-3.16-35.012" fill="#374e35" fill-rule="evenodd"/><path d="m7886.42 608.113 49.03-50.468c-23.31 7.406-46.62 14.796-69.93 22.21 1.39 11.922 8.63 22.95 20.9 28.258" fill="#374e35" fill-rule="evenodd"/><path d="m7946.44 1004.77 66.35-23.469c-24.18-3.711-48.36-7.422-72.54-11.145-4.05 11.309-2.45 24.407 6.19 34.614" fill="#374e35" fill-rule="evenodd"/><path d="m7577.13 590.566c50.09 75.899 86.6 181.336 88.32 295.489 4.89 323.935-26.19 632.515 159.12 635.475 185.29 2.97 145.88-358.59 135.32-664.882-10.42-302.351-164.51-550.847-368.54-653.101 2.45-71.836 4.88-140.1993 7.63-203.547h-854.94c-43.68 95.7539-67.52 216.688-84.37 374.434-46.99 439.914-59.81 844.186 129.61 811.536 189.41-32.66 149.88-428.118 173.72-783.802 13.6-203.086 105.77-292.004 182.35-330.9571-20.24 283.2541-42.91 619.2191-51.39 931.3791-13.19 485.19-47.52 891.5 114.18 895.59 275.9 6.98 341.35-679.57 368.99-1307.614" fill="#598454" fill-rule="evenodd"/><path d="m7577.13 590.566c1.8-35.3 4.83-86.386 9.04-80.332 132.18 107.532 134.88 276.946 136.47 382.176 23.96 323.94 14.24 556.16 97.69 567.7 73.55 10.16 128.59-15.89 142.81-131.46 16.12-130.96 2.36-309.29-3.25-472.002-10.42-302.351-164.51-550.847-368.54-653.101 2.45-71.836 4.88-140.1993 7.63-203.547h-398.58c25.14 71.3867 29.57 210.344 26.71 268.113-11.68 235.996-25.16 502.446-41.99 732.357-35.45 484.07-87.8 745.21 73.92 749.29 157.33 3.97 195.35-69.2 247.83-376.87 39.52-231.8 58.38-512.468 70.26-782.324zm-770.31-590.566h376.77c-5 13.8672-9.54 24.7461-19.22 44.8516-12.03 1.9765-16.1 5.1797-42.32 15.7734-56.5 37.8906-162.33 94.641-180.24 341.523-13.07 180.047-13.78 400.207-32.65 554.075-12.99 105.987-25.94 149.917-98.7 164.067-157.43 30.63-145.62-341.52-99.95-769.157 11.06-103.567 17.44-189.641 46.57-258.8557 14.4-34.2109 31.1-64.7578 49.74-92.2773" fill="#496c44" fill-rule="evenodd"/><path d="m7123.21 1831.5c15.86-213.99 72.16-997.098 110.67-1831.5h14.37c-39.99 867.078-99.2 1678.78-112.35 1854.75-4.58-6.97-8.8-14.73-12.69-23.25" fill="#374e35"/><path d="m7207.77 1898.15c20.02-167.99 110.73-961.404 155.07-1898.15h14.39c-44.17 933.867-134.42 1725.4-154.93 1897.87-4.66.29-9.37.43-14.16.31z" fill="#374e35"/><path d="m7289.66 1877.47c36.73-180.21 170.38-892.165 207.37-1877.47h14.34c-36.12 963.02-164.46 1665.43-204.81 1866.45-5.52 4.03-11.15 7.74-16.9 11.02" fill="#374e35"/><path d="m7133.14 77.793c12.38-16.8555 27.77-44.4532 42.21-77.793h15.63c-15.75 37.2852-33 68.3789-46.75 86.9531l1.12-15.7422c-4.03 2.0508-8.1 4.25-12.21 6.5821" fill="#374e35"/><path d="m7574.53 629.387c.04-.942 14.84-327.367 16.95-447.699l.62.011-.75 21.848c4.63 2.32 9.25 4.742 13.83 7.223-2.97 115.793-12.52 334.289-15.45 400.023-4.09-6.953-8.29-13.703-12.6-20.227-.57 12.918-1.16 25.887-1.77 38.86z" fill="#374e35"/><path d="m7145.33 0c-78.59 28.8203-230.41 124.871-251.98 439.309-9.46 137.769-12.04 259.265-14.23 362.711-3.74 176.425-6.39 301.11-40.57 364.27-8.49 5.74-17.65 10.39-27.51 13.92 46.69-46.65 49.51-178.55 53.73-378.472 2.21-103.886 4.8-225.91 14.23-363.386 19.55-284.875 144.85-395.6567 230.52-438.352z" fill="#374e35"/><path d="m6961.93 0c-47.22 38.6719-87.71 86.0938-107.44 142.813-23.61 67.871-40.53 197.453-52.55 339.765-22.18 262.844-27.53 568.592-27.53 611.122 0 32.21 2.57 53.89 6.66 70.28 2.13 8.49 4.69 15.61 7.52 22.08-5.13.87-10.11 1.37-14.93 1.6-2.42-6-4.62-12.58-6.53-20.2-4.38-17.5-7.11-40.31-7.11-73.76 0-42.61 5.34-348.915 27.59-612.313 12.1-143.282 29.24-274.051 53.33-343.301 18.82-54.1212 55.58-99.9805 99.08-138.086z" fill="#374e35"/><path d="m6818.09 0c-41.91 56.3984-73.32 122.961-84.01 200.723-18.83 136.965-30.04 279.504-36.29 408.507-9.2 189.708-7.67 350.086-3.9 420.54 2.65 49.34 13.47 86.57 27.59 113.82 9.91 19.15 21.37 33.29 32.64 43.15-9.94-1.45-19.19-4.4-27.76-8.8-6.2-7.96-12.17-17.18-17.66-27.77-14.93-28.85-26.39-68.04-29.15-119.65-3.79-70.762-5.33-231.719 3.9-421.965 6.27-129.367 17.51-272.325 36.41-409.746 10.52-76.575 40.46-142.5121 80.61-198.809z" fill="#374e35"/><path d="m7856.24 1518.03c19.17-22.94 47.8-76.84 40.55-442.96-4.23-213.476-22.17-352.851-49.58-451.984-27.25-98.496-63.89-157.148-105.75-209.473-83.65-104.55-145.44-129.258-145.62-129.328l5.57-13.211c.18.078 65.25 26.121 151.23 133.594 42.95 53.684 80.52 113.777 108.41 214.59 27.7 100.183 45.83 240.715 50.08 455.542 6.02 304.31-13.5 397.23-32.06 434.37-7.08 3.8-14.68 6.8-22.83 8.86" fill="#374e35"/><path d="m7813.32 1520.91c1.95-19.18 6.35-82.85-.47-227.76-1.76-37.75-2.81-83.96-3.94-134.63-4.23-188.43-9.87-439.016-61.16-559.821-64.88-152.781-158.36-219.246-158.63-219.441l8.49-11.582c.27.195 96.9 68.918 163.36 225.398 52.36 123.305 58.01 375.512 62.27 565.176 1.14 50.26 2.16 96.11 3.96 134.23 6.72 142.88 2.57 207.93.51 229.01-1.06 0-2.08.06-3.14.04-3.86-.05-7.58-.3-11.25-.62" fill="#374e35"/><path d="m7780.27 1513.7c-21.58-38.25-49.23-115.83-47.91-261.19 1.07-117.35-2.73-233.77-10.56-334.522-7.65-98.32-19.14-181.425-33.7-235.508-29.05-107.878-105.42-169.812-105.64-169.992l9.1-11.133c.23.176 80.17 65 110.43 177.415 14.8 54.929 26.43 138.964 34.14 238.144 7.85 100.836 11.64 217.666 10.57 335.716-1.49 164.07 33.38 237.78 53.44 266.54-6.98-1.31-13.6-3.15-19.87-5.47" fill="#374e35"/><path d="m6670.37 1083.98-70.23 4.29c20.81-12.86 41.61-25.71 62.42-38.57 8.13 8.82 11.77 21.51 7.81 34.28" fill="#374e35" fill-rule="evenodd"/><path d="m6668.32 547.402-68.98-13.847c23.41-7.102 46.81-14.192 70.22-21.282 5.61 10.618 5.86 23.813-1.24 35.129" fill="#374e35" fill-rule="evenodd"/><path d="m6949.31 488.508 68.99-13.86c-23.41-7.089-46.82-14.187-70.22-21.281-5.61 10.617-5.87 23.821 1.23 35.141" fill="#374e35" fill-rule="evenodd"/><path d="m6889.79 903.367 70.17 5.305c-20.62-13.152-41.25-26.317-61.86-39.473-8.28 8.711-12.09 21.348-8.31 34.168" fill="#374e35" fill-rule="evenodd"/><path d="m6954.58 240.691 70.17 5.317c-20.62-13.164-41.24-26.32-61.86-39.477-8.27 8.711-12.09 21.352-8.31 34.16" fill="#374e35" fill-rule="evenodd"/><path d="m6837.44 674.844 69-13.86c-23.41-7.097-46.82-14.187-70.23-21.277-5.61 10.613-5.87 23.809 1.23 35.137" fill="#374e35" fill-rule="evenodd"/><path d="m6743.95 63.9727-50.95-48.5313c23.57 6.4922 47.16 12.9844 70.74 19.4805-.92 11.9648-7.74 23.2617-19.79 29.0508" fill="#374e35" fill-rule="evenodd"/><path d="m6852.84 252.266-50.95-48.536c23.58 6.497 47.16 12.989 70.75 19.485-.93 11.973-7.76 23.269-19.8 29.051" fill="#374e35" fill-rule="evenodd"/><path d="m6741.95 886.105-68.98-13.859c23.41-7.09 46.8-14.18 70.21-21.269 5.62 10.617 5.87 23.808-1.23 35.128" fill="#374e35" fill-rule="evenodd"/><path d="m6998.14 33.3086 42.88 55.7852c-22.3-10.043-44.59-20.0782-66.9-30.1211 2.76-11.6875 11.23-21.7969 24.02-25.6641" fill="#374e35" fill-rule="evenodd"/><path d="m6798.29 1140.17 52.82 46.49c-8.54-22.92-17.07-45.84-25.62-68.76-11.85 1.96-22.5 9.76-27.2 22.27" fill="#374e35" fill-rule="evenodd"/><path d="m7320.59 1620.01 68.98-13.87c-23.4-7.09-46.82-14.18-70.22-21.26-5.61 10.61-5.87 23.8 1.24 35.13" fill="#374e35" fill-rule="evenodd"/><path d="m7473.81 977.645 68.99-13.856c-23.41-7.101-46.82-14.187-70.23-21.277-5.61 10.613-5.86 23.804 1.24 35.133" fill="#374e35" fill-rule="evenodd"/><path d="m7441.41 494.629 68.99-13.859c-23.41-7.086-46.81-14.176-70.22-21.278-5.61 10.625-5.87 23.821 1.23 35.137" fill="#374e35" fill-rule="evenodd"/><path d="m7556.27 117.645 69-13.856c-23.41-7.0898-46.82-14.1913-70.23-21.2773-5.61 10.6133-5.87 23.8163 1.23 35.1333" fill="#374e35" fill-rule="evenodd"/><path d="m7435.56 1553.95 70.37.48c-21.49-11.72-42.96-23.42-64.43-35.12-7.65 9.25-10.59 22.12-5.94 34.64" fill="#374e35" fill-rule="evenodd"/><path d="m7248.47 1813.96 52.82 46.5c-8.54-22.92-17.08-45.84-25.61-68.76-11.85 1.97-22.5 9.75-27.21 22.26" fill="#374e35" fill-rule="evenodd"/><path d="m7154.73 1836.39-52.93 46.36c23.84-5.49 47.66-11 71.5-16.5-.42-12-6.76-23.57-18.57-29.86" fill="#374e35" fill-rule="evenodd"/><path d="m7097.95 1358.43-67.22 20.82c24 4.67 48.02 9.34 72.04 14 4.49-11.14 3.4-24.3-4.82-34.82" fill="#374e35" fill-rule="evenodd"/><path d="m7209.86 1237.68-67.22 20.82c24.02 4.66 48.02 9.33 72.04 13.99 4.5-11.13 3.41-24.29-4.82-34.81" fill="#374e35" fill-rule="evenodd"/><path d="m7178.26 617.676-68.13 17.605c23.76 5.805 47.53 11.606 71.29 17.414 5.02-10.918 4.55-24.101-3.16-35.019" fill="#374e35" fill-rule="evenodd"/><path d="m7148.81 270.145-68.13 17.609c23.76 5.801 47.52 11.601 71.28 17.402 5.02-10.91 4.56-24.101-3.15-35.011" fill="#374e35" fill-rule="evenodd"/><path d="m7296.07 446.855-68.13 17.61c23.76 5.801 47.52 11.598 71.28 17.398 5.03-10.906 4.56-24.09-3.15-35.008" fill="#374e35" fill-rule="evenodd"/><path d="m7336.54 1081.55 70.28-3.76c-22.14-10.4-44.28-20.79-66.43-31.19-7.08 9.7-9.24 22.72-3.85 34.95" fill="#374e35" fill-rule="evenodd"/><path d="m7354.98 726.648-68.13 17.61c23.76 5.801 47.52 11.601 71.28 17.402 5.01-10.906 4.56-24.101-3.15-35.012" fill="#374e35" fill-rule="evenodd"/><path d="m7389.56 227.441 70.26-3.757c-22.13-10.395-44.27-20.793-66.41-31.196-7.08 9.707-9.24 22.727-3.85 34.953" fill="#374e35" fill-rule="evenodd"/><path d="m7939.26 1327.4h70.37c-21.55-11.56-43.11-23.12-64.67-34.69-7.58 9.31-10.44 22.19-5.7 34.69" fill="#374e35" fill-rule="evenodd"/><path d="m7919.64 803.594 64.44-28.274c-24.38-1.929-48.77-3.855-73.15-5.789-3.22 11.574-.64 24.512 8.71 34.063" fill="#374e35" fill-rule="evenodd"/><path d="m7682.18 1015.77-59.84 37.03c24.41-1.51 48.82-3.01 73.24-4.53 1.55-11.9-2.81-24.36-13.4-32.5" fill="#374e35" fill-rule="evenodd"/><path d="m7782.25 1451.97-30.64 63.35c19.8-14.37 39.59-28.74 59.39-43.1-5.08-10.89-15.43-19.07-28.75-20.25" fill="#374e35" fill-rule="evenodd"/><path d="m7741.04 457.52 51.25-48.223c-23.62 6.348-47.24 12.695-70.86 19.055.84 11.968 7.61 23.308 19.61 29.168" fill="#374e35" fill-rule="evenodd"/><path d="m7683.76 282.219 19.17-67.715c-17 17.586-33.99 35.176-50.99 52.769 6.89 9.836 18.51 16.086 31.82 14.946" fill="#374e35" fill-rule="evenodd"/><path d="m7836.86 1157.91 51.09-9.92c-16.84-8.41-33.69-16.81-50.54-25.22-4.55 10.28-5.29 23.44-.55 35.14" fill="#374e35" fill-rule="evenodd"/><path d="m7708.41 1317.85-39.85 33.49c18.82-.83 37.62-1.66 56.43-2.49-1.01-11.21-6.77-23.07-16.58-31" fill="#374e35" fill-rule="evenodd"/><path d="m7644.18 680.176-31.63 41.328c18.18-4.895 36.37-9.785 54.54-14.668-3.42-10.715-11.6-21.043-22.91-26.66" fill="#374e35" fill-rule="evenodd"/><path d="m7771.62 794.48-41.92 30.84c18.82.383 37.64.774 56.46 1.164-.28-11.242-5.25-23.449-14.54-32.004" fill="#374e35" fill-rule="evenodd"/><path d="m7756.91 1178.46-41.93 30.84c18.83.39 37.65.77 56.48 1.16-.3-11.24-5.26-23.45-14.55-32" fill="#374e35" fill-rule="evenodd"/><path d="m7687.64 534.734-20.28 47.942c16.37-9.285 32.75-18.574 49.12-27.863-5.98-9.508-16.49-17.469-28.84-20.079" fill="#374e35" fill-rule="evenodd"/><path d="m0 2031.86c260.383 7.07 916.465-6.13 1661.13-258.18-103.35-178.11-55.63-337.57-37.09-382.07-104.74-53.78-160.45-66.81-267.07-92.72-48.24-88.97-22.26-192.88-7.42-259.65-103.81-59.357-215.2-87.177-333.83-103.857 0 0-11.17-289.27 111.28-437.688 103.86-14.836 556.48-77.937 890.22-233.691 12.47-67.141 34.91-165.9376 104.21-264.004h-2121.43z" fill="#d57e22" fill-rule="evenodd"/><path d="m445.391 1431.45c601.769 0 1089.799-488.02 1089.799-1089.79 0-119.347-19.26-234.18-54.73-341.66l-1480.46 0v1336.5c135.992 61 286.73 94.95 445.391 94.95" fill="#f5d87e" fill-rule="evenodd"/><path d="m0 400.84c263.73 59.043 892.793 193.437 1484.18 271.035 33.09-104.18 51.01-215.105 51.01-330.215 0-119.347-19.21-234.199-54.69-341.66h-1480.5z" fill="#f2cb63" fill-rule="evenodd"/><path d="m0 1420.72c105.77-25.75 277.051-51.34 545.176-54.86-22.887-64.97-265.403-60.8-328.313-92.75-37.742-19.16 17.203-39.09 24.157-55.77-46.532-13.88-97.899-36.16-45.43-37.33 182.375-4.04 583.457 17.22 1161.38 118.88-6.4-11.81-11.51-24.02-15.49-36.47-166.52-49.86-835.281-139.32-1044.863-234.29-29.195-16.7 15.223-31.939 91.645-45.357 55.207-9.687-227.27-59.707-388.262-94.875zm0-573.154v-847.566h2121.43c-69.3 98.0664-91.74 196.863-104.21 264.004-333.74 155.754-1451.212-60.801-1555.072-45.969-282.543 4.133-479.2144 35.063-324.605 99.926 20.484 8.582-71.2227 53.902-37.465 65.437 49.34 16.868 171.641 4.563 309.414 14.895 87.145 6.531 235.242 48.465 341.571 94.852-711.3716-55.872-574.379 94.511-210.45 151.984 215.946 34.101 434.578 119.668 483.037 140.762-10.45 84.336-7.93 149.492-7.93 149.492 42.43 2.832-632.97-98.879-1015.72-87.817" fill="#b6641d" fill-rule="evenodd"/><path d="m1302.52 1014.69c-90.22-42.866-185.89-65.12-286.8-79.307 0 0-11.17-289.27 111.28-437.688 56.63-8.086 216.95-30.539 405.16-74.519 1.99-26.914 3.03-54.094 3.03-81.516 0-119.347-19.21-234.199-54.69-341.66h-1480.5v1336.52c135.984 61 286.73 94.93 445.391 94.93 347.785 0 657.569-163 857.129-416.76" fill="#dd9b4e" fill-rule="evenodd"/><path d="m154.492 1392.11c98.75-13.67 226.563-24.1 390.684-26.25-22.887-64.97-265.403-60.8-328.313-92.75-37.742-19.16 17.203-39.09 24.157-55.77-46.532-13.88-97.899-36.16-45.43-37.33 147.883-3.27 439.578 10.09 852.75 69.46 18.24-12.15 36.1-24.81 53.55-37.99-268.035-49.89-654.874-115.2-805.273-183.35-29.195-16.7 15.223-31.939 91.645-45.357 55.207-9.687-227.27-59.707-388.262-94.875v448.582c49.6406 22.26 101.246 40.91 154.492 55.63zm-154.492-544.544v-847.566h1480.47c33.26 100.801 52.22 208.098 54.44 319.492-446.47-11.711-1001.07-111.699-1072.762-101.457-282.543 4.133-479.2144 35.063-324.605 99.926 20.484 8.582-71.2227 53.902-37.465 65.437 49.34 16.868 171.641 4.563 309.414 14.895 87.145 6.531 235.242 48.465 341.571 94.852-711.3716-55.872-574.379 94.511-210.45 151.984 215.946 34.101 434.578 119.668 483.037 140.762-10.45 84.336-7.93 149.492-7.93 149.492 42.43 2.832-632.97-98.879-1015.72-87.817" fill="#c28245" fill-rule="evenodd"/><path d="m1127 505.117c103.86-14.844 556.48-85.359 890.22-241.113-213.97-118.914-805.8-206.7267-1336.872-264.004h-680.348v181.133c676.289 50.976 929.477 113.015 1127 323.984" fill="#f89c35" fill-rule="evenodd"/><path d="m1127 505.117c56.61-8.086 216.82-32.722 404.93-78.679 2.15-27.981 3.26-56.25 3.26-84.778 0-76.965-8.03-152.031-23.21-224.48-250.64-47.7347-549.792-86.762-831.82-117.18h-680.16v181.133c676.289 50.976 929.477 113.015 1127 323.984" fill="#f9b261" fill-rule="evenodd"/><path d="m0 2031.86c260.383 7.07 916.465-6.13 1661.13-258.18-70.41-124.83-1024.118-347.18-1661.13-280.49z" fill="#f89c35" fill-rule="evenodd"/><path d="m857.09 1384.04s420.39 62.97 650.04 159.27c-74.08-64.81-146.31-101.86-296.31-135.18-150.02-33.34-351.875-24.09-353.73-24.09" fill="#b6641d" fill-rule="evenodd"/><path d="m3377 574.172c-140.04 56.004-177.67 68.926-256.05 212.891l-.04-.11-.01-.019-.1-.332-.03-.071-.16-.476-.05-.188-.19-.594-.09-.312-.2-.676-.14-.476-.21-.711-.02-.11-.31-1.14-.04-.16-.23-.907c-30.3-120.429 62.8-215.343 157.55-267.898-22.17-15.488-38.47-34.153-43.4-58.418-4.04-19.836-.64-26.75-7.03-38.43-44.75-81.765-119.48-84.836-126.71-99.64-14.88-30.528-48.72-35.086-27.19-63.543 32.5-42.942 96.28-65.118 164.85-55.821 90.16 12.215 105 16.907 181.5 27.766 55.68 7.898 149.3 72.105 182.05 134.226 133.07-25.664 272.89 19.571 364.15 127.832l.33.391.61.734 1.02 1.239.65.793.81 1.004.66.839.61.782.13.168.97 1.265.63.825.31.418.55.761.2.274.48.664.11.156.37.52.04.078.25.339.01.02.08.129c-196.18-64.133-237.76-49.973-392.55-1.574-2.92 6.054-6.8 12.746-11.9 20.41-34.39 51.601-157.81 79.726-181.28 67.195-2.8-1.492-6.45-5.332-10.99-10.113" fill="#c3941a" fill-rule="evenodd"/><path d="m3367.41 642.461c-150.55 60.437-188.03 69.746-268.73 217.961 0 0-65.98-184.055 215.03-302.883 55.34 8.672 82.54 60.43 53.7 84.922" fill="#fde3ae" fill-rule="evenodd"/><path d="m3098.68 860.422s-65.98-184.055 215.03-302.883c20.75 3.254 37.55 12.566 48.91 24.219-197.08 56.972-249.03 178.801-263.94 278.664" fill="#f2d49b" fill-rule="evenodd"/><path d="m3077.27 344.246c7.23 14.809 81.96 63.391 126.71 145.156 6.4 11.684 3 18.594 7.03 38.43 9.07 44.609 56.53 70.266 108.35 92.117 23.41 9.864 38.31 33.403 46.37 37.696 23.47 12.531 146.88-15.582 181.27-67.196 34.38-51.609 13.23-59.07 15.63-123.586.53-14.5-18.82-32.617-30.93-55.886-29.29-56.407-86.18-71.282-136.38-78.411-76.5-10.855-86.98-48.027-170.4-84.375-51.93-22.625-115.69-18.203-147.09.325-30.74 18.132-15.44 65.207-.56 95.73" fill="#fef4e6" fill-rule="evenodd"/><path d="m3342.36 514.199c7.46 32.403 105.68-21.094 127.93-60.508-27.91-16.328-58.55-19.296-92.29-8.703-33.73 10.598-43.57 34.707-35.64 69.211" fill="#94876e" fill-rule="evenodd"/><path d="m3255.06 542.02c-11.91-7.821-20.49-25.028-27.67-26.305-3.13-.547-10.15 2.144-6.48 14.324 4.26 14.102 23.03 35.012 36.13 42.332 11.35-4.18 20.3-15.699-1.98-30.351" fill="#94876e" fill-rule="evenodd"/><path d="m3087.39 254.57s-23.41 15.989-13.3 52.5c10.09 36.516 37.29 38.075 40.39 33.41-12.35-27.218-11.6-45.675-11.6-45.675s24.9 27.531 41.1 25.996c16.19-1.543 16.95-11.953 12.33-28.137-4.63-16.187-29.29-53.965-68.92-38.094" fill="#94876e" fill-rule="evenodd"/><path d="m3540.19 575.879c170.51-53.008 207.39-70.906 411.27-4.258 0 0-129.73-196.035-453.86-102.031-32.67 44.844-2.61 105.859 42.59 106.289" fill="#fde3ae" fill-rule="evenodd"/><path d="m3951.46 571.621s-129.73-196.035-453.86-102.031c-12.25 16.816-15.67 35.906-12.8 53.223 201.7-87.579 358.6-23 466.66 48.808" fill="#f2d49b" fill-rule="evenodd"/><path d="m3138.14 372.07c13.77 19.446 61.64 58.555 88.77 114.035 27.12 55.477 41.3 19.11 68.42 43.766 27.13 24.66 6.78 42.531 16.64 55.481 9.87 12.949 36.99 17.878 51.17 38.222 14.17 20.344 126.98 1.848 123.9-26.511-3.08-28.364-26.51-41.918-30.21-59.18-3.69-17.258-28.35 4.324-69.65 16.648-41.3 12.332-81.98-25.886-73.97-65.343 8.02-39.454-2.47-22.809-45-55.477-42.53-32.676-96.78-80.137-116.51-93.074-19.72-12.949-40.68-25.285-33.9-8.032 6.78 17.266 9.36 23.958 20.34 39.465" fill="#fff" fill-rule="evenodd"/><path d="m3723.17 2613.41c40.02 0 72.48-32.46 72.48-72.48 0-40.03-32.46-72.48-72.48-72.48s-72.48 32.45-72.48 72.48c0 40.02 32.46 72.48 72.48 72.48" fill="#eeb269" fill-rule="evenodd"/><path d="m2173.38 1597.14c52.06 0 94.29-42.23 94.29-94.29 0-52.07-42.23-94.3-94.29-94.3-52.07 0-94.3 42.23-94.3 94.3 0 52.06 42.23 94.29 94.3 94.29" fill="#fef2bc" fill-rule="evenodd"/><path d="m2893.98 2353.41c205.97 0 373.01-167.03 373.01-373.01 0-205.97-167.04-373.01-373.01-373.01s-373.01 167.04-373.01 373.01c0 205.98 167.04 373.01 373.01 373.01" fill="#fff" fill-rule="evenodd"/><path d="m2695.69 2296.35c79.87-4.37 161.81-24.36 229.04-56.62 147.32-70.73 129.65-188.59 265.19-200.37 34.67-3.02 56.59 2.85 70.06 13.23 4.58-23.36 7.01-47.49 7.01-72.19 0-137.34-74.29-257.36-184.86-322.1l-356.7-10.71c-121.3 61.56-204.46 187.49-204.46 332.81 0 133.12 69.77 249.93 174.72 315.95" fill="#fffccc" fill-rule="evenodd"/><path d="m7128.13 4972.73c91 0 164.81-73.8 164.81-164.8 0-91.02-73.81-164.82-164.81-164.82-91.01 0-164.82 73.8-164.82 164.82 0 91 73.81 164.8 164.82 164.8" fill="#fafce5" fill-rule="evenodd"/><path d="m7558.04 5488.16c213.18 0 386.06-172.89 386.06-386.07s-172.88-386.07-386.06-386.07-386.07 172.89-386.07 386.07 172.89 386.07 386.07 386.07" fill="#fff" fill-rule="evenodd"/><path d="m7559.81 5624.39c288.54 0 522.53-233.99 522.53-522.53s-233.99-522.52-522.53-522.52c-288.53 0-522.52 233.98-522.52 522.52s233.99 522.53 522.52 522.53zm0-38.85c-267.08 0-483.68-216.59-483.68-483.68s216.6-483.68 483.68-483.68 483.69 216.59 483.69 483.68-216.61 483.68-483.69 483.68" fill="#fffef0" fill-rule="evenodd"/><path d="m7266.02 4717.67c-7.13-10.89-15.53-20.89-24.98-29.78-86.94 67.04-152.16 160.84-183.36 269.06 11.61 5.49 23.95 9.68 36.85 12.36 28.85-101.38 89.95-189.19 171.49-251.64" fill="#fff" fill-rule="evenodd"/><path d="m4942.87 3405.68c33.97 0 61.51-27.54 61.51-61.5 0-33.95-27.54-61.5-61.51-61.5-33.95 0-61.5 27.55-61.5 61.5 0 33.96 27.55 61.5 61.5 61.5" fill="#e8f6e5" fill-rule="evenodd"/><g clip-path="url(#b)"><path d="m64104.8 65367.4-57283.97-61429.49000000001-1130.45 1054.17 57283.92000000001 61429.52" fill="#edf8e5"/><path d="m6820.83 3937.91-78.61-84.3-1130.46 1054.17 78.61 84.3" fill="#edf8e5"/><path d="m6742.22 3853.61-78.61-84.3-1130.46 1054.17 78.61 84.3" fill="#ecf8e5"/><path d="m6663.61 3769.31-78.62-84.3-1130.45 1054.17 78.61 84.3" fill="#ebf7e4"/><path d="m6584.99 3685.01-78.61-84.31-1130.46 1054.18 78.62 84.3" fill="#eaf7e4"/><path d="m6506.38 3600.7-78.61-84.3-1130.46 1054.17 78.61 84.31" fill="#e9f7e3"/><path d="m6427.77 3516.4-78.61-84.3-1130.46 1054.17 78.61 84.3" fill="#e8f6e2"/><path d="m6349.16 3432.1-78.62-84.3-1130.45 1054.17 78.61 84.3" fill="#e7f6e2"/><path d="m6270.54 3347.8-78.61-84.3-1130.46 1054.17 78.62 84.3" fill="#e6f6e2"/><path d="m6191.93 3263.5-78.61-84.3-1130.46 1054.17 78.61 84.3" fill="#e5f5e1"/><path d="m6113.32 3179.2-78.61-84.3-1130.46 1054.17 78.61 84.3" fill="#e4f5e1"/><path d="m6034.71 3094.9-78.62-84.3-1130.45 1054.17 78.61 84.3" fill="#e3f5e0"/><path d="m5956.09 3010.6-78.61-84.31-1130.46 1054.17 78.62 84.31" fill="#e1f4e0"/><path d="m5877.48 2926.29-78.61-84.3-1130.46 1054.17 78.61 84.3" fill="#e0f4df"/><path d="m5798.87 2841.99-57283.97-61429.49-1130.4 1054.2 57283.91 61429.46000000001" fill="#e0f4e0"/></g><g fill-rule="evenodd"><path d="m6279.04 4712.39c227.07 0 411.23-184.15 411.23-411.23s-184.16-411.22-411.23-411.22-411.23 184.14-411.23 411.22 184.16 411.23 411.23 411.23" fill="#f2fae5"/><path d="m5960.69 4561.44c269.33-90.29 463.45-344.7 463.45-644.39l-.01-.75c-16.43-6.2-33.36-11.38-50.72-15.46.14 5.39.22 10.79.22 16.21 0 282.87-186.85 522.18-443.83 601.25 9.38 15.06 19.7 29.47 30.89 43.14" fill="#fafdef"/><path d="m3933.56 3177.05c73.82 9.35 222.36 18.25 428.96-17.68 291.89-50.76-50.7 4.22-435.35 8.54 1.83 2.72 3.3 4.95 6.39 9.14" fill="#ebab5c"/><path d="m3685.57 2478.95c-20.91 12.72-34.88 35.72-34.88 61.98 0 25.07 12.73 47.17 32.08 60.18 4.11-43.15 4.05-93.22 2.8-122.16" fill="#90aa7e"/><path d="m2547.87 2119.65c237.29-53.13 477.27-99.01 719.09-137.38l.03-1.87c0-205.97-167.04-373.01-373.01-373.01s-373.01 167.04-373.01 373.01c0 49.23 9.56 96.22 26.9 139.25" fill="#fff47f"/><path d="m2576.89 1783.93c133.24-16.85 245.14-108.49 318.37-174.78.64-.59 1.41-1.13 2.07-1.71-1.12-.01-2.23-.05-3.35-.05-133.88 0-251.28 70.59-317.09 176.54" fill="#feec65"/><path d="m2397.24 203.66c30.94 0 56.03-14.07 56.03-31.402 0-17.348-25.09-31.406-56.03-31.406-30.93 0-56.02 14.058-56.02 31.406 0 17.332 25.09 31.402 56.02 31.402" fill="#f5d045"/><path d="m3186.93 115.266c30.94 0 56.03-14.067 56.03-31.4105 0-17.3399-25.09-31.4024-56.03-31.4024-30.93 0-56.02 14.0625-56.02 31.4024 0 17.3435 25.09 31.4105 56.02 31.4105" fill="#f5d045"/><path d="m4123.96 398.137c30.93 0 56.02-14.067 56.02-31.407 0-17.343-25.09-31.41-56.02-31.41-30.94 0-56.03 14.067-56.03 31.41 0 17.34 25.09 31.407 56.03 31.407" fill="#f5d045"/><path d="m5273.14 121.152c30.93 0 56.02-14.062 56.02-31.4059 0-17.3438-25.09-31.4063-56.02-31.4063s-56.03 14.0625-56.03 31.4063c0 17.3439 25.1 31.4059 56.03 31.4059" fill="#f5d045"/><path d="m6080.51 227.227c30.94 0 56.03-14.063 56.03-31.399 0-17.344-25.09-31.414-56.03-31.414-30.93 0-56.03 14.07-56.03 31.414 0 17.336 25.1 31.399 56.03 31.399" fill="#f5d045"/><path d="m6434.1 704.578c30.94 0 56.03-14.058 56.03-31.402 0-17.336-25.09-31.406-56.03-31.406-30.92 0-56.02 14.07-56.02 31.406 0 17.344 25.1 31.402 56.02 31.402" fill="#f5d045"/><path d="m8090.1 203.66c30.94 0 56.03-14.058 56.03-31.402 0-17.348-25.09-31.406-56.03-31.406-30.93 0-56.03 14.058-56.03 31.406 0 17.344 25.1 31.402 56.03 31.402" fill="#f5d045"/><path d="m8243.32 627.969c30.94 0 56.03-14.063 56.03-31.406 0-17.344-25.09-31.407-56.03-31.407-30.93 0-56.02 14.063-56.02 31.407 0 17.343 25.09 31.406 56.02 31.406" fill="#f5d045"/><path d="m7905.05 392.246c18.23 0 33.02-8.293 33.02-18.508 0-10.222-14.79-18.511-33.02-18.511s-33.02 8.289-33.02 18.511c0 10.215 14.79 18.508 33.02 18.508" fill="#f5d045"/><path d="m8276.32 144.727c18.23 0 33.02-8.282 33.02-18.504 0-10.215-14.79-18.508-33.02-18.508-18.22 0-33.01 8.293-33.01 18.508 0 10.222 14.79 18.504 33.01 18.504" fill="#f5d045"/><path d="m7722.36 109.375c18.24 0 33.02-8.289 33.02-18.5078 0-10.2227-14.78-18.5156-33.02-18.5156-18.23 0-33.01 8.2929-33.01 18.5156 0 10.2188 14.78 18.5078 33.01 18.5078" fill="#f5d045"/><path d="m8329.37 468.855c18.23 0 33.01-8.289 33.01-18.503 0-10.223-14.78-18.504-33.01-18.504-18.24 0-33.02 8.281-33.02 18.504 0 10.214 14.78 18.503 33.02 18.503" fill="#f5d045"/><path d="m6290.3 610.293c18.24 0 33.02-8.281 33.02-18.508 0-10.222-14.78-18.504-33.02-18.504-18.22 0-33.01 8.282-33.01 18.504 0 10.227 14.79 18.508 33.01 18.508" fill="#f5d045"/><path d="m7038.75 563.152c18.22 0 33.01-8.289 33.01-18.511 0-10.215-14.79-18.508-33.01-18.508-18.23 0-33.02 8.293-33.02 18.508 0 10.222 14.79 18.511 33.02 18.511" fill="#f5d045"/><path d="m6461.21 97.5898c18.23 0 33.02-8.2929 33.02-18.5078 0-10.2265-14.79-18.5156-33.02-18.5156s-33.02 8.2891-33.02 18.5156c0 10.2149 14.79 18.5078 33.02 18.5078" fill="#f5d045"/><path d="m5736.34 115.266c18.23 0 33.02-8.293 33.02-18.5082 0-10.2226-14.79-18.5039-33.02-18.5039-18.22 0-33.01 8.2813-33.01 18.5039 0 10.2152 14.79 18.5082 33.01 18.5082" fill="#f5d045"/><path d="m5129.34 215.449c18.23 0 33.02-8.293 33.02-18.508 0-10.222-14.79-18.511-33.02-18.511s-33.01 8.289-33.01 18.511c0 10.215 14.78 18.508 33.01 18.508" fill="#f5d045"/><path d="m3944.8 191.875c18.23 0 33.02-8.281 33.02-18.508 0-10.222-14.79-18.504-33.02-18.504s-33.01 8.282-33.01 18.504c0 10.227 14.78 18.508 33.01 18.508" fill="#f5d045"/><path d="m4298.4 297.961c18.23 0 33.02-8.293 33.02-18.52 0-10.211-14.79-18.503-33.02-18.503s-33.02 8.292-33.02 18.503c0 10.227 14.79 18.52 33.02 18.52" fill="#f5d045"/><path d="m4304.29 728.164c18.23 0 33.01-8.293 33.01-18.508 0-10.222-14.78-18.511-33.01-18.511-18.24 0-33.02 8.289-33.02 18.511 0 10.215 14.78 18.508 33.02 18.508" fill="#f5d045"/><path d="m4133.38 698.691c18.24 0 33.02-8.281 33.02-18.503 0-10.215-14.78-18.508-33.02-18.508-18.22 0-33.01 8.293-33.01 18.508 0 10.222 14.79 18.503 33.01 18.503" fill="#f5d045"/><path d="m3744.43 639.766c18.23 0 33.02-8.289 33.02-18.504 0-10.227-14.79-18.52-33.02-18.52s-33.01 8.293-33.01 18.52c0 10.215 14.78 18.504 33.01 18.504" fill="#f5d045"/><path d="m4775.74 109.375c18.24 0 33.02-8.289 33.02-18.5078 0-10.2227-14.78-18.5156-33.02-18.5156-18.22 0-33.01 8.2929-33.01 18.5156 0 10.2188 14.79 18.5078 33.01 18.5078" fill="#f5d045"/><path d="m2589.36 256.699c18.23 0 33.02-8.281 33.02-18.508 0-10.211-14.79-18.503-33.02-18.503s-33.02 8.292-33.02 18.503c0 10.227 14.79 18.508 33.02 18.508" fill="#f5d045"/><path d="m1616.97 604.402c18.24 0 33.03-8.289 33.03-18.504 0-10.222-14.79-18.515-33.03-18.515-18.22 0-33.01 8.293-33.01 18.515 0 10.215 14.79 18.504 33.01 18.504" fill="#f5d045"/><path d="m1805.56 669.23c18.23 0 33.02-8.292 33.02-18.507 0-10.227-14.79-18.516-33.02-18.516s-33.02 8.289-33.02 18.516c0 10.215 14.79 18.507 33.02 18.507" fill="#f5d045"/><path d="m2070.75 309.746c18.23 0 33.02-8.293 33.02-18.516 0-10.214-14.79-18.503-33.02-18.503s-33.01 8.289-33.01 18.503c0 10.223 14.78 18.516 33.01 18.516" fill="#f5d045"/><path d="m1251.77 574.949c18.23 0 33.02-8.289 33.02-18.504 0-10.222-14.79-18.515-33.02-18.515s-33.02 8.293-33.02 18.515c0 10.215 14.79 18.504 33.02 18.504" fill="#f5d87e"/><path d="m1866.85 486.531c30.94 0 56.03-14.058 56.03-31.402 0-17.348-25.09-31.406-56.03-31.406-30.93 0-56.02 14.058-56.02 31.406 0 17.344 25.09 31.402 56.02 31.402" fill="#ecb622"/><path d="m2556.36 663.328c30.94 0 56.02-14.058 56.02-31.402 0-17.348-25.08-31.406-56.02-31.406-30.93 0-56.02 14.058-56.02 31.406 0 17.344 25.09 31.402 56.02 31.402" fill="#ecb622"/><path d="m1642.91 916.738c30.93 0 56.03-14.062 56.03-31.406s-25.1-31.406-56.03-31.406c-30.94 0-56.02 14.062-56.02 31.406s25.08 31.406 56.02 31.406" fill="#ecb622"/><path d="m2797.98 1270.33c30.94 0 56.02-14.06 56.02-31.4 0-17.35-25.08-31.41-56.02-31.41-30.93 0-56.02 14.06-56.02 31.41 0 17.34 25.09 31.4 56.02 31.4" fill="#ecb622"/><path d="m3947.16 969.773c30.94 0 56.02-14.058 56.02-31.406 0-17.344-25.08-31.402-56.02-31.402-30.93 0-56.02 14.058-56.02 31.402 0 17.348 25.09 31.406 56.02 31.406" fill="#ecb622"/><path d="m5072.77 569.031c30.93 0 56.02-14.058 56.02-31.394 0-17.344-25.09-31.414-56.02-31.414s-56.02 14.07-56.02 31.414c0 17.336 25.09 31.394 56.02 31.394" fill="#ecb622"/><path d="m4701.5 1223.18c30.93 0 56.02-14.06 56.02-31.4s-25.09-31.41-56.02-31.41c-30.94 0-56.03 14.07-56.03 31.41s25.09 31.4 56.03 31.4" fill="#ecb622"/><path d="m5373.32 963.887c30.94 0 56.03-14.063 56.03-31.407 0-17.343-25.09-31.406-56.03-31.406-30.93 0-56.02 14.063-56.02 31.406 0 17.344 25.09 31.407 56.02 31.407" fill="#ecb622"/><path d="m6056.93 462.961c30.94 0 56.03-14.066 56.03-31.406 0-17.344-25.09-31.41-56.03-31.41-30.92 0-56.01 14.066-56.01 31.41 0 17.34 25.09 31.406 56.01 31.406" fill="#ecb622"/><path d="m6404.64 1158.36c30.94 0 56.02-14.06 56.02-31.41 0-17.34-25.08-31.4-56.02-31.4s-56.03 14.06-56.03 31.4c0 17.35 25.09 31.41 56.03 31.41" fill="#ecb622"/><path d="m8249.22 1046.39c30.94 0 56.03-14.07 56.03-31.41 0-17.335-25.09-31.406-56.03-31.406s-56.03 14.071-56.03 31.406c0 17.34 25.09 31.41 56.03 31.41" fill="#ecb622"/><path d="m8089.56 891.086c18.23 0 33.02-8.281 33.02-18.508 0-10.215-14.79-18.508-33.02-18.508s-33.02 8.293-33.02 18.508c0 10.227 14.79 18.508 33.02 18.508" fill="#ecb622"/><path d="m8136.71 1126.82c18.23 0 33.02-8.3 33.02-18.51 0-10.22-14.79-18.51-33.02-18.51s-33.02 8.29-33.02 18.51c0 10.21 14.79 18.51 33.02 18.51" fill="#ecb622"/><path d="m7612.21 967.695c18.23 0 33.02-8.281 33.02-18.507 0-10.211-14.79-18.504-33.02-18.504s-33.02 8.293-33.02 18.504c0 10.226 14.79 18.507 33.02 18.507" fill="#ecb622"/><path d="m6973.11 1162.08c18.22 0 33.02-8.29 33.02-18.51s-14.8-18.5-33.02-18.5c-18.23 0-33.02 8.28-33.02 18.5s14.79 18.51 33.02 18.51" fill="#ecb622"/><path d="m7029.06 1073.73c18.24 0 33.02-8.29 33.02-18.5 0-10.23-14.78-18.52-33.02-18.52-18.23 0-33.01 8.29-33.01 18.52 0 10.21 14.78 18.5 33.01 18.5" fill="#ecb622"/><path d="m6210.29 1091.39c18.23 0 33.02-8.28 33.02-18.5s-14.79-18.5-33.02-18.5-33.02 8.28-33.02 18.5 14.79 18.5 33.02 18.5" fill="#ecb622"/><path d="m6522.49 1005.98c18.23 0 33.02-8.285 33.02-18.5 0-10.222-14.79-18.503-33.02-18.503s-33.02 8.281-33.02 18.503c0 10.215 14.79 18.5 33.02 18.5" fill="#ecb622"/><path d="m5839.2 428.73c18.23 0 33.02-8.292 33.02-18.503 0-10.227-14.79-18.516-33.02-18.516s-33.02 8.289-33.02 18.516c0 10.211 14.79 18.503 33.02 18.503" fill="#ecb622"/><path d="m5485.81 575.945c18.23 0 33.02-8.289 33.02-18.511 0-10.215-14.79-18.508-33.02-18.508-18.22 0-33.02 8.293-33.02 18.508 0 10.222 14.8 18.511 33.02 18.511" fill="#ecb622"/><path d="m5541.74 964.758c18.23 0 33.02-8.293 33.02-18.508 0-10.227-14.79-18.516-33.02-18.516s-33.02 8.289-33.02 18.516c0 10.215 14.79 18.508 33.02 18.508" fill="#ecb622"/><path d="m5892.22 832.219c18.23 0 33.01-8.281 33.01-18.508 0-10.215-14.78-18.508-33.01-18.508-18.24 0-33.02 8.293-33.02 18.508 0 10.227 14.78 18.508 33.02 18.508" fill="#ecb622"/><path d="m4911.46 511.191c18.24 0 33.02-8.281 33.02-18.503 0-10.227-14.78-18.508-33.02-18.508-18.23 0-33.01 8.281-33.01 18.508 0 10.222 14.78 18.503 33.01 18.503" fill="#ecb622"/><path d="m4555.1 1079.62c18.23 0 33.01-8.29 33.01-18.51s-14.78-18.51-33.01-18.51c-18.24 0-33.02 8.29-33.02 18.51s14.78 18.51 33.02 18.51" fill="#ecb622"/><path d="m4979.2 1256.33c18.23 0 33.02-8.29 33.02-18.51s-14.79-18.51-33.02-18.51c-18.22 0-33.01 8.29-33.01 18.51s14.79 18.51 33.01 18.51" fill="#ecb622"/><path d="m3806.62 876.465c18.24 0 33.02-8.289 33.02-18.504 0-10.227-14.78-18.508-33.02-18.508-18.23 0-33.01 8.281-33.01 18.508 0 10.215 14.78 18.504 33.01 18.504" fill="#ecb622"/><path d="m5394.47 1324.07c18.24 0 33.02-8.29 33.02-18.51s-14.78-18.51-33.02-18.51c-18.22 0-33.01 8.29-33.01 18.51s14.79 18.51 33.01 18.51" fill="#ecb622"/><path d="m4622.83 1497.83c18.23 0 33.02-8.28 33.02-18.51 0-10.22-14.79-18.5-33.02-18.5s-33.02 8.28-33.02 18.5c0 10.23 14.79 18.51 33.02 18.51" fill="#ecb622"/><path d="m5041.05 1306.39c18.24 0 33.02-8.28 33.02-18.5s-14.78-18.5-33.02-18.5c-18.23 0-33.01 8.28-33.01 18.5s14.78 18.5 33.01 18.5" fill="#ecb622"/><path d="m4790.73 637.754c18.23 0 33.02-8.281 33.02-18.508 0-10.215-14.79-18.504-33.02-18.504s-33.02 8.289-33.02 18.504c0 10.227 14.79 18.508 33.02 18.508" fill="#ecb622"/><path d="m5046.94 832.219c18.24 0 33.02-8.281 33.02-18.508 0-10.215-14.78-18.508-33.02-18.508-18.23 0-33.01 8.293-33.01 18.508 0 10.227 14.78 18.508 33.01 18.508" fill="#ecb622"/><path d="m5317.9 414.004c18.23 0 33.02-8.289 33.02-18.508 0-10.223-14.79-18.516-33.02-18.516s-33.02 8.293-33.02 18.516c0 10.219 14.79 18.508 33.02 18.508" fill="#ecb622"/><path d="m4616.94 472.91c18.24 0 33.02-8.293 33.02-18.515 0-10.215-14.78-18.504-33.02-18.504-18.23 0-33.01 8.289-33.01 18.504 0 10.222 14.78 18.515 33.01 18.515" fill="#ecb622"/><path d="m5874.54 1235.71c18.23 0 33.02-8.29 33.02-18.5 0-10.23-14.79-18.52-33.02-18.52s-33.02 8.29-33.02 18.52c0 10.21 14.79 18.5 33.02 18.5" fill="#ecb622"/><path d="m5809.72 693.535c18.23 0 33.01-8.293 33.01-18.508 0-10.222-14.78-18.511-33.01-18.511-18.24 0-33.02 8.289-33.02 18.511 0 10.215 14.78 18.508 33.02 18.508" fill="#ecb622"/><path d="m3959.24 1241.6c18.24 0 33.02-8.28 33.02-18.5s-14.78-18.51-33.02-18.51c-18.22 0-33.01 8.29-33.01 18.51s14.79 18.5 33.01 18.5" fill="#ecb622"/><path d="m3323.38 935.398c18.23 0 33.01-8.289 33.01-18.503 0-10.223-14.78-18.516-33.01-18.516-18.24 0-33.02 8.293-33.02 18.516 0 10.214 14.78 18.503 33.02 18.503" fill="#ecb622"/><path d="m2757.63 575.906c18.23 0 33.01-8.277 33.01-18.504 0-10.214-14.78-18.507-33.01-18.507-18.24 0-33.02 8.293-33.02 18.507 0 10.227 14.78 18.504 33.02 18.504" fill="#ecb622"/><path d="m2203.66 882.363c18.23 0 33.02-8.293 33.02-18.508 0-10.222-14.79-18.511-33.02-18.511s-33.02 8.289-33.02 18.511c0 10.215 14.79 18.508 33.02 18.508" fill="#ecb622"/><path d="m2610.29 1159.35c18.23 0 33.02-8.3 33.02-18.52s-14.79-18.51-33.02-18.51c-18.22 0-33.01 8.29-33.01 18.51s14.79 18.52 33.01 18.52" fill="#ecb622"/><path d="m3028.71 1182.91c18.23 0 33.02-8.28 33.02-18.51 0-10.21-14.79-18.5-33.02-18.5s-33.01 8.29-33.01 18.5c0 10.23 14.78 18.51 33.01 18.51" fill="#ecb622"/><path d="m3700.54 1342.03c18.23 0 33.02-8.29 33.02-18.51s-14.79-18.51-33.02-18.51-33.01 8.29-33.01 18.51 14.78 18.51 33.01 18.51" fill="#ecb622"/><path d="m1467.01 1235.96c18.23 0 33.01-8.29 33.01-18.52 0-10.21-14.78-18.5-33.01-18.5s-33.02 8.29-33.02 18.5c0 10.23 14.79 18.52 33.02 18.52" fill="#ecb622"/><path d="m1867.75 1306.67c18.23 0 33.02-8.28 33.02-18.51 0-10.22-14.79-18.5-33.02-18.5s-33.02 8.28-33.02 18.5c0 10.23 14.79 18.51 33.02 18.51" fill="#ecb622"/><path d="m1967.93 1259.53c18.24 0 33.02-8.29 33.02-18.51s-14.78-18.51-33.02-18.51c-18.23 0-33.01 8.29-33.01 18.51s14.78 18.51 33.01 18.51" fill="#ecb622"/><path d="m1095.74 888.254c18.23 0 33.01-8.293 33.01-18.508 0-10.226-14.78-18.508-33.01-18.508-18.24 0-33.02 8.282-33.02 18.508 0 10.215 14.78 18.508 33.02 18.508" fill="#f2cb63"/><path d="m1337.24 732.156c18.23 0 33.02-8.289 33.02-18.504 0-10.222-14.79-18.515-33.02-18.515-18.22 0-33.02 8.293-33.02 18.515 0 10.215 14.8 18.504 33.02 18.504" fill="#f2cb63"/><path d="m1189.98 926.543c18.23 0 33.02-8.289 33.02-18.508 0-10.222-14.79-18.515-33.02-18.515s-33.01 8.293-33.01 18.515c0 10.219 14.78 18.508 33.01 18.508" fill="#f2cb63"/><path d="m1690.4 1527.42c18.23 0 33.02-8.29 33.02-18.5 0-10.23-14.79-18.51-33.02-18.51s-33.02 8.28-33.02 18.51c0 10.21 14.79 18.5 33.02 18.5" fill="#fff372"/><path d="m2435.53 1636.39c18.24 0 33.02-8.28 33.02-18.5s-14.78-18.51-33.02-18.51c-18.23 0-33.01 8.29-33.01 18.51s14.78 18.5 33.01 18.5" fill="#fff372"/><path d="m2629.92 1512.7c18.23 0 33.01-8.3 33.01-18.51 0-10.23-14.78-18.51-33.01-18.51s-33.02 8.28-33.02 18.51c0 10.21 14.79 18.51 33.02 18.51" fill="#fff372"/><path d="m2040.88 1424.35c18.23 0 33.01-8.3 33.01-18.52s-14.78-18.51-33.01-18.51c-18.24 0-33.02 8.29-33.02 18.51s14.78 18.52 33.02 18.52" fill="#fff372"/><path d="m3098.2 1497.97c18.24 0 33.02-8.28 33.02-18.51 0-10.22-14.78-18.5-33.02-18.5-18.23 0-33.01 8.28-33.01 18.5 0 10.23 14.78 18.51 33.01 18.51" fill="#fff372"/><path d="m4076.01 1751.26c18.23 0 33.01-8.29 33.01-18.51s-14.78-18.51-33.01-18.51-33.02 8.29-33.02 18.51 14.79 18.51 33.02 18.51" fill="#fff372"/><path d="m4411.86 1639.35c18.24 0 33.02-8.3 33.02-18.51 0-10.23-14.78-18.52-33.02-18.52-18.23 0-33.01 8.29-33.01 18.52 0 10.21 14.78 18.51 33.01 18.51" fill="#fff372"/><path d="m4573.75 1677.63c18.23 0 33.02-8.29 33.02-18.51 0-10.23-14.79-18.51-33.02-18.51s-33.02 8.28-33.02 18.51c0 10.22 14.79 18.51 33.02 18.51" fill="#fff372"/><path d="m6058.84 1477.26c18.23 0 33.02-8.28 33.02-18.51s-14.79-18.51-33.02-18.51-33.02 8.28-33.02 18.51 14.79 18.51 33.02 18.51" fill="#fff372"/><path d="m6754.24 1642.27c18.23 0 33.02-8.29 33.02-18.51s-14.79-18.51-33.02-18.51c-18.22 0-33.01 8.29-33.01 18.51s14.79 18.51 33.01 18.51" fill="#fff372"/><path d="m6860.32 1430.12c18.23 0 33.02-8.3 33.02-18.52 0-10.21-14.79-18.5-33.02-18.5s-33.02 8.29-33.02 18.5c0 10.22 14.79 18.52 33.02 18.52" fill="#fff372"/><path d="m8304.16 1447.79c18.23 0 33.02-8.29 33.02-18.5 0-10.23-14.79-18.52-33.02-18.52s-33.02 8.29-33.02 18.52c0 10.21 14.79 18.5 33.02 18.5" fill="#fff372"/><path d="m1982.09 1770.61c18.23 0 33.01-8.3 33.01-18.51 0-10.22-14.78-18.51-33.01-18.51s-33.02 8.29-33.02 18.51c0 10.21 14.79 18.51 33.02 18.51" fill="#fddf4c"/><path d="m1139.36 2024.02c18.23 0 33.01-8.3 33.01-18.51 0-10.23-14.78-18.52-33.01-18.52-18.24 0-33.02 8.29-33.02 18.52 0 10.21 14.78 18.51 33.02 18.51" fill="#fddf4c"/><path d="m2270.86 2088.84c18.23 0 33.01-8.29 33.01-18.51s-14.78-18.51-33.01-18.51-33.02 8.29-33.02 18.51 14.79 18.51 33.02 18.51" fill="#fddf4c"/><path d="m2365.14 2018.11c18.24 0 33.02-8.27 33.02-18.5 0-10.22-14.78-18.5-33.02-18.5-18.22 0-33.01 8.28-33.01 18.5 0 10.23 14.79 18.5 33.01 18.5" fill="#fddf4c"/><path d="m3675.76 1705.93c18.23 0 33.02-8.29 33.02-18.51s-14.79-18.5-33.02-18.5-33.01 8.28-33.01 18.5 14.78 18.51 33.01 18.51" fill="#fddf4c"/><path d="m3443.09 1820.79c18.23 0 33.02-8.29 33.02-18.5 0-10.23-14.79-18.52-33.02-18.52s-33.02 8.29-33.02 18.52c0 10.21 14.79 18.5 33.02 18.5" fill="#fddf4c"/><path d="m5541.07 1667.57c18.24 0 33.02-8.29 33.02-18.51s-14.78-18.51-33.02-18.51c-18.22 0-33 8.29-33 18.51s14.78 18.51 33 18.51" fill="#fddf4c"/><path d="m6065.58 1732.39c18.23 0 33.01-8.29 33.01-18.5 0-10.23-14.78-18.52-33.01-18.52-18.24 0-33.02 8.29-33.02 18.52 0 10.21 14.78 18.5 33.02 18.5" fill="#fddf4c"/><path d="m5953.61 1779.54c18.23 0 33.01-8.29 33.01-18.5 0-10.23-14.78-18.52-33.01-18.52-18.24 0-33.02 8.29-33.02 18.52 0 10.21 14.78 18.5 33.02 18.5" fill="#fddf4c"/><path d="m6860.72 1903.24c18.24 0 33.02-8.29 33.02-18.51s-14.78-18.51-33.02-18.51c-18.23 0-33.01 8.29-33.01 18.51s14.78 18.51 33.01 18.51" fill="#fddf4c"/><path d="m7632.73 1608.57c18.24 0 33.02-8.29 33.02-18.5 0-10.23-14.78-18.51-33.02-18.51-18.22 0-33 8.28-33 18.51 0 10.21 14.78 18.5 33 18.5" fill="#fddf4c"/><path d="m8039.37 1767.7c18.23 0 33.01-8.3 33.01-18.51 0-10.23-14.78-18.51-33.01-18.51s-33.01 8.28-33.01 18.51c0 10.21 14.78 18.51 33.01 18.51" fill="#fddf4c"/><path d="m2963.3 1791.25c18.23 0 33.02-8.28 33.02-18.51 0-10.21-14.79-18.5-33.02-18.5s-33.02 8.29-33.02 18.5c0 10.23 14.79 18.51 33.02 18.51" fill="#feec65"/></g></g></svg>